<svg height="100000" width="100000">
<line x1="97983" y1="50053" x2="97983" y2="51272" style="stroke:red;stroke-width:10"/>
<line x1="97983" y1="51272" x2="98081" y2="51272" style="stroke:red;stroke-width:10"/>
<line x1="98081" y1="51272" x2="98081" y2="52481" style="stroke:red;stroke-width:10"/>
<line x1="98081" y1="52481" x2="97881" y2="52481" style="stroke:red;stroke-width:10"/>
<line x1="97881" y1="52481" x2="97881" y2="53667" style="stroke:red;stroke-width:10"/>
<line x1="97881" y1="53667" x2="97463" y2="53667" style="stroke:red;stroke-width:10"/>
<line x1="97463" y1="53667" x2="97463" y2="54904" style="stroke:red;stroke-width:10"/>
<line x1="97463" y1="54904" x2="97700" y2="54904" style="stroke:red;stroke-width:10"/>
<line x1="97700" y1="54904" x2="97700" y2="56059" style="stroke:red;stroke-width:10"/>
<line x1="97700" y1="56059" x2="97159" y2="56059" style="stroke:red;stroke-width:10"/>
<line x1="97159" y1="56059" x2="97159" y2="57282" style="stroke:red;stroke-width:10"/>
<line x1="97159" y1="57282" x2="97184" y2="57282" style="stroke:red;stroke-width:10"/>
<line x1="97184" y1="57282" x2="97184" y2="58545" style="stroke:red;stroke-width:10"/>
<line x1="97184" y1="58545" x2="97373" y2="58545" style="stroke:red;stroke-width:10"/>
<line x1="97373" y1="58545" x2="97373" y2="59685" style="stroke:red;stroke-width:10"/>
<line x1="97373" y1="59685" x2="96864" y2="59685" style="stroke:red;stroke-width:10"/>
<line x1="96864" y1="59685" x2="96864" y2="60915" style="stroke:red;stroke-width:10"/>
<line x1="96864" y1="60915" x2="96799" y2="60915" style="stroke:red;stroke-width:10"/>
<line x1="96799" y1="60915" x2="96799" y2="62109" style="stroke:red;stroke-width:10"/>
<line x1="96799" y1="62109" x2="96555" y2="62109" style="stroke:red;stroke-width:10"/>
<line x1="96555" y1="62109" x2="96555" y2="63248" style="stroke:red;stroke-width:10"/>
<line x1="96555" y1="63248" x2="96107" y2="63248" style="stroke:red;stroke-width:10"/>
<line x1="96107" y1="63248" x2="96107" y2="64456" style="stroke:red;stroke-width:10"/>
<line x1="96107" y1="64456" x2="95897" y2="64456" style="stroke:red;stroke-width:10"/>
<line x1="95897" y1="64456" x2="95897" y2="65545" style="stroke:red;stroke-width:10"/>
<line x1="95897" y1="65545" x2="95315" y2="65545" style="stroke:red;stroke-width:10"/>
<line x1="95315" y1="65545" x2="95315" y2="66585" style="stroke:red;stroke-width:10"/>
<line x1="95315" y1="66585" x2="94629" y2="66585" style="stroke:red;stroke-width:10"/>
<line x1="94629" y1="66585" x2="94629" y2="67764" style="stroke:red;stroke-width:10"/>
<line x1="94629" y1="67764" x2="94328" y2="67764" style="stroke:red;stroke-width:10"/>
<line x1="94328" y1="67764" x2="94328" y2="69172" style="stroke:red;stroke-width:10"/>
<line x1="94328" y1="69172" x2="94540" y2="69172" style="stroke:red;stroke-width:10"/>
<line x1="94540" y1="69172" x2="94540" y2="69995" style="stroke:red;stroke-width:10"/>
<line x1="94540" y1="69995" x2="93389" y2="69995" style="stroke:red;stroke-width:10"/>
<line x1="93389" y1="69995" x2="93389" y2="71085" style="stroke:red;stroke-width:10"/>
<line x1="93389" y1="71085" x2="92864" y2="71085" style="stroke:red;stroke-width:10"/>
<line x1="92864" y1="71085" x2="92864" y2="72330" style="stroke:red;stroke-width:10"/>
<line x1="92864" y1="72330" x2="92633" y2="72330" style="stroke:red;stroke-width:10"/>
<line x1="92633" y1="72330" x2="92633" y2="73150" style="stroke:red;stroke-width:10"/>
<line x1="92633" y1="73150" x2="91598" y2="73150" style="stroke:red;stroke-width:10"/>
<line x1="91598" y1="73150" x2="91598" y2="74517" style="stroke:red;stroke-width:10"/>
<line x1="91598" y1="74517" x2="91543" y2="74517" style="stroke:red;stroke-width:10"/>
<line x1="91543" y1="74517" x2="91543" y2="75344" style="stroke:red;stroke-width:10"/>
<line x1="91543" y1="75344" x2="90561" y2="75344" style="stroke:red;stroke-width:10"/>
<line x1="90561" y1="75344" x2="90561" y2="76326" style="stroke:red;stroke-width:10"/>
<line x1="90561" y1="76326" x2="89848" y2="76326" style="stroke:red;stroke-width:10"/>
<line x1="89848" y1="76326" x2="89848" y2="77330" style="stroke:red;stroke-width:10"/>
<line x1="89848" y1="77330" x2="89173" y2="77330" style="stroke:red;stroke-width:10"/>
<line x1="89173" y1="77330" x2="89173" y2="78233" style="stroke:red;stroke-width:10"/>
<line x1="89173" y1="78233" x2="88358" y2="78233" style="stroke:red;stroke-width:10"/>
<line x1="88358" y1="78233" x2="88358" y2="79634" style="stroke:red;stroke-width:10"/>
<line x1="88358" y1="79634" x2="88196" y2="79634" style="stroke:red;stroke-width:10"/>
<line x1="88196" y1="79634" x2="88196" y2="80222" style="stroke:red;stroke-width:10"/>
<line x1="88196" y1="80222" x2="86980" y2="80222" style="stroke:red;stroke-width:10"/>
<line x1="86980" y1="80222" x2="86980" y2="81182" style="stroke:red;stroke-width:10"/>
<line x1="86980" y1="81182" x2="86240" y2="81182" style="stroke:red;stroke-width:10"/>
<line x1="86240" y1="81182" x2="86240" y2="81977" style="stroke:red;stroke-width:10"/>
<line x1="86240" y1="81977" x2="85314" y2="81977" style="stroke:red;stroke-width:10"/>
<line x1="85314" y1="81977" x2="85314" y2="82797" style="stroke:red;stroke-width:10"/>
<line x1="85314" y1="82797" x2="84425" y2="82797" style="stroke:red;stroke-width:10"/>
<line x1="84425" y1="82797" x2="84425" y2="84002" style="stroke:red;stroke-width:10"/>
<line x1="84425" y1="84002" x2="83926" y2="84002" style="stroke:red;stroke-width:10"/>
<line x1="83926" y1="84002" x2="83926" y2="84700" style="stroke:red;stroke-width:10"/>
<line x1="83926" y1="84700" x2="82911" y2="84700" style="stroke:red;stroke-width:10"/>
<line x1="82911" y1="84700" x2="82911" y2="85398" style="stroke:red;stroke-width:10"/>
<line x1="82911" y1="85398" x2="81909" y2="85398" style="stroke:red;stroke-width:10"/>
<line x1="81909" y1="85398" x2="81909" y2="86349" style="stroke:red;stroke-width:10"/>
<line x1="81909" y1="86349" x2="81134" y2="86349" style="stroke:red;stroke-width:10"/>
<line x1="81134" y1="86349" x2="81134" y2="87579" style="stroke:red;stroke-width:10"/>
<line x1="81134" y1="87579" x2="80571" y2="87579" style="stroke:red;stroke-width:10"/>
<line x1="80571" y1="87579" x2="80571" y2="87721" style="stroke:red;stroke-width:10"/>
<line x1="80571" y1="87721" x2="79130" y2="87721" style="stroke:red;stroke-width:10"/>
<line x1="79130" y1="87721" x2="79130" y2="88715" style="stroke:red;stroke-width:10"/>
<line x1="79130" y1="88715" x2="78362" y2="88715" style="stroke:red;stroke-width:10"/>
<line x1="78362" y1="88715" x2="78362" y2="89085" style="stroke:red;stroke-width:10"/>
<line x1="78362" y1="89085" x2="77139" y2="89085" style="stroke:red;stroke-width:10"/>
<line x1="77139" y1="89085" x2="77139" y2="89746" style="stroke:red;stroke-width:10"/>
<line x1="77139" y1="89746" x2="76131" y2="89746" style="stroke:red;stroke-width:10"/>
<line x1="76131" y1="89746" x2="76131" y2="90468" style="stroke:red;stroke-width:10"/>
<line x1="76131" y1="90468" x2="75161" y2="90468" style="stroke:red;stroke-width:10"/>
<line x1="75161" y1="90468" x2="75161" y2="91174" style="stroke:red;stroke-width:10"/>
<line x1="75161" y1="91174" x2="74176" y2="91174" style="stroke:red;stroke-width:10"/>
<line x1="74176" y1="91174" x2="74176" y2="91774" style="stroke:red;stroke-width:10"/>
<line x1="74176" y1="91774" x2="73125" y2="91774" style="stroke:red;stroke-width:10"/>
<line x1="73125" y1="91774" x2="73125" y2="92221" style="stroke:red;stroke-width:10"/>
<line x1="73125" y1="92221" x2="71994" y2="92221" style="stroke:red;stroke-width:10"/>
<line x1="71994" y1="92221" x2="71994" y2="93245" style="stroke:red;stroke-width:10"/>
<line x1="71994" y1="93245" x2="71153" y2="93245" style="stroke:red;stroke-width:10"/>
<line x1="71153" y1="93245" x2="71153" y2="93376" style="stroke:red;stroke-width:10"/>
<line x1="71153" y1="93376" x2="69871" y2="93376" style="stroke:red;stroke-width:10"/>
<line x1="69871" y1="93376" x2="69871" y2="94012" style="stroke:red;stroke-width:10"/>
<line x1="69871" y1="94012" x2="68828" y2="94012" style="stroke:red;stroke-width:10"/>
<line x1="68828" y1="94012" x2="68828" y2="94197" style="stroke:red;stroke-width:10"/>
<line x1="68828" y1="94197" x2="67597" y2="94197" style="stroke:red;stroke-width:10"/>
<line x1="67597" y1="94197" x2="67597" y2="95225" style="stroke:red;stroke-width:10"/>
<line x1="67597" y1="95225" x2="66692" y2="95225" style="stroke:red;stroke-width:10"/>
<line x1="66692" y1="95225" x2="66692" y2="95453" style="stroke:red;stroke-width:10"/>
<line x1="66692" y1="95453" x2="65479" y2="95453" style="stroke:red;stroke-width:10"/>
<line x1="65479" y1="95453" x2="65479" y2="96056" style="stroke:red;stroke-width:10"/>
<line x1="65479" y1="96056" x2="64393" y2="96056" style="stroke:red;stroke-width:10"/>
<line x1="64393" y1="96056" x2="64393" y2="96311" style="stroke:red;stroke-width:10"/>
<line x1="64393" y1="96311" x2="63195" y2="96311" style="stroke:red;stroke-width:10"/>
<line x1="63195" y1="96311" x2="63195" y2="96574" style="stroke:red;stroke-width:10"/>
<line x1="63195" y1="96574" x2="62003" y2="96574" style="stroke:red;stroke-width:10"/>
<line x1="62003" y1="96574" x2="62003" y2="96897" style="stroke:red;stroke-width:10"/>
<line x1="62003" y1="96897" x2="60827" y2="96897" style="stroke:red;stroke-width:10"/>
<line x1="60827" y1="96897" x2="60827" y2="97188" style="stroke:red;stroke-width:10"/>
<line x1="60827" y1="97188" x2="59642" y2="97188" style="stroke:red;stroke-width:10"/>
<line x1="59642" y1="97188" x2="59642" y2="97543" style="stroke:red;stroke-width:10"/>
<line x1="59642" y1="97543" x2="58466" y2="97543" style="stroke:red;stroke-width:10"/>
<line x1="58466" y1="97543" x2="58466" y2="97614" style="stroke:red;stroke-width:10"/>
<line x1="58466" y1="97614" x2="57239" y2="97614" style="stroke:red;stroke-width:10"/>
<line x1="57239" y1="97614" x2="57239" y2="97808" style="stroke:red;stroke-width:10"/>
<line x1="57239" y1="97808" x2="56034" y2="97808" style="stroke:red;stroke-width:10"/>
<line x1="56034" y1="97808" x2="56034" y2="98242" style="stroke:red;stroke-width:10"/>
<line x1="56034" y1="98242" x2="54851" y2="98242" style="stroke:red;stroke-width:10"/>
<line x1="54851" y1="98242" x2="54851" y2="97860" style="stroke:red;stroke-width:10"/>
<line x1="54851" y1="97860" x2="53590" y2="97860" style="stroke:red;stroke-width:10"/>
<line x1="53590" y1="97860" x2="53590" y2="97999" style="stroke:red;stroke-width:10"/>
<line x1="53590" y1="97999" x2="52380" y2="97999" style="stroke:red;stroke-width:10"/>
<line x1="52380" y1="97999" x2="52380" y2="97943" style="stroke:red;stroke-width:10"/>
<line x1="52380" y1="97943" x2="51161" y2="97943" style="stroke:red;stroke-width:10"/>
<line x1="51161" y1="97943" x2="51161" y2="98011" style="stroke:red;stroke-width:10"/>
<line x1="51161" y1="98011" x2="49946" y2="98011" style="stroke:red;stroke-width:10"/>
<line x1="49946" y1="98011" x2="49946" y2="97582" style="stroke:red;stroke-width:10"/>
<line x1="49946" y1="97582" x2="48741" y2="97582" style="stroke:red;stroke-width:10"/>
<line x1="48741" y1="97582" x2="48741" y2="97833" style="stroke:red;stroke-width:10"/>
<line x1="48741" y1="97833" x2="47520" y2="97833" style="stroke:red;stroke-width:10"/>
<line x1="47520" y1="97833" x2="47520" y2="98238" style="stroke:red;stroke-width:10"/>
<line x1="47520" y1="98238" x2="46272" y2="98238" style="stroke:red;stroke-width:10"/>
<line x1="46272" y1="98238" x2="46272" y2="97470" style="stroke:red;stroke-width:10"/>
<line x1="46272" y1="97470" x2="45119" y2="97470" style="stroke:red;stroke-width:10"/>
<line x1="45119" y1="97470" x2="45119" y2="97392" style="stroke:red;stroke-width:10"/>
<line x1="45119" y1="97392" x2="43910" y2="97392" style="stroke:red;stroke-width:10"/>
<line x1="43910" y1="97392" x2="43910" y2="97537" style="stroke:red;stroke-width:10"/>
<line x1="43910" y1="97537" x2="42663" y2="97537" style="stroke:red;stroke-width:10"/>
<line x1="42663" y1="97537" x2="42663" y2="97352" style="stroke:red;stroke-width:10"/>
<line x1="42663" y1="97352" x2="41458" y2="97352" style="stroke:red;stroke-width:10"/>
<line x1="41458" y1="97352" x2="41458" y2="96921" style="stroke:red;stroke-width:10"/>
<line x1="41458" y1="96921" x2="40302" y2="96921" style="stroke:red;stroke-width:10"/>
<line x1="40302" y1="96921" x2="40302" y2="96676" style="stroke:red;stroke-width:10"/>
<line x1="40302" y1="96676" x2="39113" y2="96676" style="stroke:red;stroke-width:10"/>
<line x1="39113" y1="96676" x2="39113" y2="95972" style="stroke:red;stroke-width:10"/>
<line x1="39113" y1="95972" x2="38042" y2="95972" style="stroke:red;stroke-width:10"/>
<line x1="38042" y1="95972" x2="38042" y2="96219" style="stroke:red;stroke-width:10"/>
<line x1="38042" y1="96219" x2="36719" y2="96219" style="stroke:red;stroke-width:10"/>
<line x1="36719" y1="96219" x2="36719" y2="95665" style="stroke:red;stroke-width:10"/>
<line x1="36719" y1="95665" x2="35616" y2="95665" style="stroke:red;stroke-width:10"/>
<line x1="35616" y1="95665" x2="35616" y2="95612" style="stroke:red;stroke-width:10"/>
<line x1="35616" y1="95612" x2="34352" y2="95612" style="stroke:red;stroke-width:10"/>
<line x1="34352" y1="95612" x2="34352" y2="94722" style="stroke:red;stroke-width:10"/>
<line x1="34352" y1="94722" x2="33379" y2="94722" style="stroke:red;stroke-width:10"/>
<line x1="33379" y1="94722" x2="33379" y2="94853" style="stroke:red;stroke-width:10"/>
<line x1="33379" y1="94853" x2="32025" y2="94853" style="stroke:red;stroke-width:10"/>
<line x1="32025" y1="94853" x2="32025" y2="94480" style="stroke:red;stroke-width:10"/>
<line x1="32025" y1="94480" x2="30853" y2="94480" style="stroke:red;stroke-width:10"/>
<line x1="30853" y1="94480" x2="30853" y2="93502" style="stroke:red;stroke-width:10"/>
<line x1="30853" y1="93502" x2="29952" y2="93502" style="stroke:red;stroke-width:10"/>
<line x1="29952" y1="93502" x2="29952" y2="92871" style="stroke:red;stroke-width:10"/>
<line x1="29952" y1="92871" x2="28910" y2="92871" style="stroke:red;stroke-width:10"/>
<line x1="28910" y1="92871" x2="28910" y2="92515" style="stroke:red;stroke-width:10"/>
<line x1="28910" y1="92515" x2="27731" y2="92515" style="stroke:red;stroke-width:10"/>
<line x1="27731" y1="92515" x2="27731" y2="91799" style="stroke:red;stroke-width:10"/>
<line x1="27731" y1="91799" x2="26738" y2="91799" style="stroke:red;stroke-width:10"/>
<line x1="26738" y1="91799" x2="26738" y2="91502" style="stroke:red;stroke-width:10"/>
<line x1="26738" y1="91502" x2="25506" y2="91502" style="stroke:red;stroke-width:10"/>
<line x1="25506" y1="91502" x2="25506" y2="90321" style="stroke:red;stroke-width:10"/>
<line x1="25506" y1="90321" x2="24804" y2="90321" style="stroke:red;stroke-width:10"/>
<line x1="24804" y1="90321" x2="24804" y2="89940" style="stroke:red;stroke-width:10"/>
<line x1="24804" y1="89940" x2="23612" y2="89940" style="stroke:red;stroke-width:10"/>
<line x1="23612" y1="89940" x2="23612" y2="89318" style="stroke:red;stroke-width:10"/>
<line x1="23612" y1="89318" x2="22568" y2="89318" style="stroke:red;stroke-width:10"/>
<line x1="22568" y1="89318" x2="22568" y2="88844" style="stroke:red;stroke-width:10"/>
<line x1="22568" y1="88844" x2="21408" y2="88844" style="stroke:red;stroke-width:10"/>
<line x1="21408" y1="88844" x2="21408" y2="87806" style="stroke:red;stroke-width:10"/>
<line x1="21408" y1="87806" x2="20668" y2="87806" style="stroke:red;stroke-width:10"/>
<line x1="20668" y1="87806" x2="20668" y2="87179" style="stroke:red;stroke-width:10"/>
<line x1="20668" y1="87179" x2="19615" y2="87179" style="stroke:red;stroke-width:10"/>
<line x1="19615" y1="87179" x2="19615" y2="86059" style="stroke:red;stroke-width:10"/>
<line x1="19615" y1="86059" x2="18974" y2="86059" style="stroke:red;stroke-width:10"/>
<line x1="18974" y1="86059" x2="18974" y2="85374" style="stroke:red;stroke-width:10"/>
<line x1="18974" y1="85374" x2="17968" y2="85374" style="stroke:red;stroke-width:10"/>
<line x1="17968" y1="85374" x2="17968" y2="85086" style="stroke:red;stroke-width:10"/>
<line x1="17968" y1="85086" x2="16572" y2="85086" style="stroke:red;stroke-width:10"/>
<line x1="16572" y1="85086" x2="16572" y2="84247" style="stroke:red;stroke-width:10"/>
<line x1="16572" y1="84247" x2="15675" y2="84247" style="stroke:red;stroke-width:10"/>
<line x1="15675" y1="84247" x2="15675" y2="82863" style="stroke:red;stroke-width:10"/>
<line x1="15675" y1="82863" x2="15350" y2="82863" style="stroke:red;stroke-width:10"/>
<line x1="15350" y1="82863" x2="15350" y2="82289" style="stroke:red;stroke-width:10"/>
<line x1="15350" y1="82289" x2="14179" y2="82289" style="stroke:red;stroke-width:10"/>
<line x1="14179" y1="82289" x2="14179" y2="81123" style="stroke:red;stroke-width:10"/>
<line x1="14179" y1="81123" x2="13663" y2="81123" style="stroke:red;stroke-width:10"/>
<line x1="13663" y1="81123" x2="13663" y2="80392" style="stroke:red;stroke-width:10"/>
<line x1="13663" y1="80392" x2="12641" y2="80392" style="stroke:red;stroke-width:10"/>
<line x1="12641" y1="80392" x2="12641" y2="79291" style="stroke:red;stroke-width:10"/>
<line x1="12641" y1="79291" x2="12070" y2="79291" style="stroke:red;stroke-width:10"/>
<line x1="12070" y1="79291" x2="12070" y2="78161" style="stroke:red;stroke-width:10"/>
<line x1="12070" y1="78161" x2="11559" y2="78161" style="stroke:red;stroke-width:10"/>
<line x1="11559" y1="78161" x2="11559" y2="77180" style="stroke:red;stroke-width:10"/>
<line x1="11559" y1="77180" x2="10855" y2="77180" style="stroke:red;stroke-width:10"/>
<line x1="10855" y1="77180" x2="10855" y2="76109" style="stroke:red;stroke-width:10"/>
<line x1="10855" y1="76109" x2="10287" y2="76109" style="stroke:red;stroke-width:10"/>
<line x1="10287" y1="76109" x2="10287" y2="75380" style="stroke:red;stroke-width:10"/>
<line x1="10287" y1="75380" x2="9178" y2="75380" style="stroke:red;stroke-width:10"/>
<line x1="9178" y1="75380" x2="9178" y2="74344" style="stroke:red;stroke-width:10"/>
<line x1="9178" y1="74344" x2="8538" y2="74344" style="stroke:red;stroke-width:10"/>
<line x1="8538" y1="74344" x2="8538" y2="73348" style="stroke:red;stroke-width:10"/>
<line x1="8538" y1="73348" x2="7823" y2="73348" style="stroke:red;stroke-width:10"/>
<line x1="7823" y1="73348" x2="7823" y2="72044" style="stroke:red;stroke-width:10"/>
<line x1="7823" y1="72044" x2="7683" y2="72044" style="stroke:red;stroke-width:10"/>
<line x1="7683" y1="72044" x2="7683" y2="71181" style="stroke:red;stroke-width:10"/>
<line x1="7683" y1="71181" x2="6695" y2="71181" style="stroke:red;stroke-width:10"/>
<line x1="6695" y1="71181" x2="6695" y2="70140" style="stroke:red;stroke-width:10"/>
<line x1="6695" y1="70140" x2="6035" y2="70140" style="stroke:red;stroke-width:10"/>
<line x1="6035" y1="70140" x2="6035" y2="68827" style="stroke:red;stroke-width:10"/>
<line x1="6035" y1="68827" x2="5991" y2="68827" style="stroke:red;stroke-width:10"/>
<line x1="5991" y1="68827" x2="5991" y2="67926" style="stroke:red;stroke-width:10"/>
<line x1="5991" y1="67926" x2="4976" y2="67926" style="stroke:red;stroke-width:10"/>
<line x1="4976" y1="67926" x2="4976" y2="66458" style="stroke:red;stroke-width:10"/>
<line x1="4976" y1="66458" x2="5407" y2="66458" style="stroke:red;stroke-width:10"/>
<line x1="5407" y1="66458" x2="5407" y2="65420" style="stroke:red;stroke-width:10"/>
<line x1="5407" y1="65420" x2="4719" y2="65420" style="stroke:red;stroke-width:10"/>
<line x1="4719" y1="65420" x2="4719" y2="64239" style="stroke:red;stroke-width:10"/>
<line x1="4719" y1="64239" x2="4438" y2="64239" style="stroke:red;stroke-width:10"/>
<line x1="4438" y1="64239" x2="4438" y2="63139" style="stroke:red;stroke-width:10"/>
<line x1="4438" y1="63139" x2="3886" y2="63139" style="stroke:red;stroke-width:10"/>
<line x1="3886" y1="63139" x2="3886" y2="61904" style="stroke:red;stroke-width:10"/>
<line x1="3886" y1="61904" x2="3809" y2="61904" style="stroke:red;stroke-width:10"/>
<line x1="3809" y1="61904" x2="3809" y2="60688" style="stroke:red;stroke-width:10"/>
<line x1="3809" y1="60688" x2="3703" y2="60688" style="stroke:red;stroke-width:10"/>
<line x1="3703" y1="60688" x2="3703" y2="59515" style="stroke:red;stroke-width:10"/>
<line x1="3703" y1="59515" x2="3433" y2="59515" style="stroke:red;stroke-width:10"/>
<line x1="3433" y1="59515" x2="3433" y2="58489" style="stroke:red;stroke-width:10"/>
<line x1="3433" y1="58489" x2="2329" y2="58489" style="stroke:red;stroke-width:10"/>
<line x1="2329" y1="58489" x2="2329" y2="57220" style="stroke:red;stroke-width:10"/>
<line x1="2329" y1="57220" x2="2513" y2="57220" style="stroke:red;stroke-width:10"/>
<line x1="2513" y1="57220" x2="2513" y2="55953" style="stroke:red;stroke-width:10"/>
<line x1="2513" y1="55953" x2="2832" y2="55953" style="stroke:red;stroke-width:10"/>
<line x1="2832" y1="55953" x2="2832" y2="54799" style="stroke:red;stroke-width:10"/>
<line x1="2832" y1="54799" x2="2271" y2="54799" style="stroke:red;stroke-width:10"/>
<line x1="2271" y1="54799" x2="2271" y2="53566" style="stroke:red;stroke-width:10"/>
<line x1="2271" y1="53566" x2="2459" y2="53566" style="stroke:red;stroke-width:10"/>
<line x1="2459" y1="53566" x2="2459" y2="52356" style="stroke:red;stroke-width:10"/>
<line x1="2459" y1="52356" x2="2488" y2="52356" style="stroke:red;stroke-width:10"/>
<line x1="2488" y1="52356" x2="2488" y2="51169" style="stroke:red;stroke-width:10"/>
<line x1="2488" y1="51169" x2="1723" y2="51169" style="stroke:red;stroke-width:10"/>
<line x1="1723" y1="51169" x2="1723" y2="50049" style="stroke:red;stroke-width:10"/>
<line x1="1723" y1="50049" x2="94523" y2="50049" style="stroke:red;stroke-width:10"/>
<line x1="94523" y1="50049" x2="94523" y2="48719" style="stroke:red;stroke-width:10"/>
<line x1="94523" y1="48719" x2="1595" y2="48719" style="stroke:red;stroke-width:10"/>
<line x1="1595" y1="48719" x2="1595" y2="47536" style="stroke:red;stroke-width:10"/>
<line x1="1595" y1="47536" x2="2482" y2="47536" style="stroke:red;stroke-width:10"/>
<line x1="2482" y1="47536" x2="2482" y2="46321" style="stroke:red;stroke-width:10"/>
<line x1="2482" y1="46321" x2="2403" y2="46321" style="stroke:red;stroke-width:10"/>
<line x1="2403" y1="46321" x2="2403" y2="45095" style="stroke:red;stroke-width:10"/>
<line x1="2403" y1="45095" x2="2296" y2="45095" style="stroke:red;stroke-width:10"/>
<line x1="2296" y1="45095" x2="2296" y2="43921" style="stroke:red;stroke-width:10"/>
<line x1="2296" y1="43921" x2="2695" y2="43921" style="stroke:red;stroke-width:10"/>
<line x1="2695" y1="43921" x2="2695" y2="42719" style="stroke:red;stroke-width:10"/>
<line x1="2695" y1="42719" x2="2828" y2="42719" style="stroke:red;stroke-width:10"/>
<line x1="2828" y1="42719" x2="2828" y2="41562" style="stroke:red;stroke-width:10"/>
<line x1="2828" y1="41562" x2="3222" y2="41562" style="stroke:red;stroke-width:10"/>
<line x1="3222" y1="41562" x2="3222" y2="40224" style="stroke:red;stroke-width:10"/>
<line x1="3222" y1="40224" x2="2699" y2="40224" style="stroke:red;stroke-width:10"/>
<line x1="2699" y1="40224" x2="2699" y2="39079" style="stroke:red;stroke-width:10"/>
<line x1="2699" y1="39079" x2="3177" y2="39079" style="stroke:red;stroke-width:10"/>
<line x1="3177" y1="39079" x2="3177" y2="37999" style="stroke:red;stroke-width:10"/>
<line x1="3177" y1="37999" x2="3864" y2="37999" style="stroke:red;stroke-width:10"/>
<line x1="3864" y1="37999" x2="3864" y2="36807" style="stroke:red;stroke-width:10"/>
<line x1="3864" y1="36807" x2="4089" y2="36807" style="stroke:red;stroke-width:10"/>
<line x1="4089" y1="36807" x2="4089" y2="35632" style="stroke:red;stroke-width:10"/>
<line x1="4089" y1="35632" x2="4386" y2="35632" style="stroke:red;stroke-width:10"/>
<line x1="4386" y1="35632" x2="4386" y2="34312" style="stroke:red;stroke-width:10"/>
<line x1="4386" y1="34312" x2="4272" y2="34312" style="stroke:red;stroke-width:10"/>
<line x1="4272" y1="34312" x2="4272" y2="33177" style="stroke:red;stroke-width:10"/>
<line x1="4272" y1="33177" x2="4733" y2="33177" style="stroke:red;stroke-width:10"/>
<line x1="4733" y1="33177" x2="4733" y2="32241" style="stroke:red;stroke-width:10"/>
<line x1="4733" y1="32241" x2="5686" y2="32241" style="stroke:red;stroke-width:10"/>
<line x1="5686" y1="32241" x2="5686" y2="31119" style="stroke:red;stroke-width:10"/>
<line x1="5686" y1="31119" x2="6137" y2="31119" style="stroke:red;stroke-width:10"/>
<line x1="6137" y1="31119" x2="6137" y2="29806" style="stroke:red;stroke-width:10"/>
<line x1="6137" y1="29806" x2="6179" y2="29806" style="stroke:red;stroke-width:10"/>
<line x1="6179" y1="29806" x2="6179" y2="28704" style="stroke:red;stroke-width:10"/>
<line x1="6179" y1="28704" x2="6707" y2="28704" style="stroke:red;stroke-width:10"/>
<line x1="6707" y1="28704" x2="6707" y2="27769" style="stroke:red;stroke-width:10"/>
<line x1="6707" y1="27769" x2="7556" y2="27769" style="stroke:red;stroke-width:10"/>
<line x1="7556" y1="27769" x2="7556" y2="26633" style="stroke:red;stroke-width:10"/>
<line x1="7556" y1="26633" x2="8011" y2="26633" style="stroke:red;stroke-width:10"/>
<line x1="8011" y1="26633" x2="8011" y2="25738" style="stroke:red;stroke-width:10"/>
<line x1="8011" y1="25738" x2="8891" y2="25738" style="stroke:red;stroke-width:10"/>
<line x1="8891" y1="25738" x2="8891" y2="24700" style="stroke:red;stroke-width:10"/>
<line x1="8891" y1="24700" x2="9512" y2="24700" style="stroke:red;stroke-width:10"/>
<line x1="9512" y1="24700" x2="9512" y2="23669" style="stroke:red;stroke-width:10"/>
<line x1="9512" y1="23669" x2="10145" y2="23669" style="stroke:red;stroke-width:10"/>
<line x1="10145" y1="23669" x2="10145" y2="22498" style="stroke:red;stroke-width:10"/>
<line x1="10145" y1="22498" x2="10581" y2="22498" style="stroke:red;stroke-width:10"/>
<line x1="10581" y1="22498" x2="10581" y2="21360" style="stroke:red;stroke-width:10"/>
<line x1="10581" y1="21360" x2="11090" y2="21360" style="stroke:red;stroke-width:10"/>
<line x1="11090" y1="21360" x2="11090" y2="20367" style="stroke:red;stroke-width:10"/>
<line x1="11090" y1="20367" x2="11806" y2="20367" style="stroke:red;stroke-width:10"/>
<line x1="11806" y1="20367" x2="11806" y2="19399" style="stroke:red;stroke-width:10"/>
<line x1="11806" y1="19399" x2="12557" y2="19399" style="stroke:red;stroke-width:10"/>
<line x1="12557" y1="19399" x2="12557" y2="18748" style="stroke:red;stroke-width:10"/>
<line x1="12557" y1="18748" x2="13678" y2="18748" style="stroke:red;stroke-width:10"/>
<line x1="13678" y1="18748" x2="13678" y2="17795" style="stroke:red;stroke-width:10"/>
<line x1="13678" y1="17795" x2="14434" y2="17795" style="stroke:red;stroke-width:10"/>
<line x1="14434" y1="17795" x2="14434" y2="17156" style="stroke:red;stroke-width:10"/>
<line x1="14434" y1="17156" x2="15525" y2="17156" style="stroke:red;stroke-width:10"/>
<line x1="15525" y1="17156" x2="15525" y2="16203" style="stroke:red;stroke-width:10"/>
<line x1="15525" y1="16203" x2="16278" y2="16203" style="stroke:red;stroke-width:10"/>
<line x1="16278" y1="16203" x2="16278" y2="14843" style="stroke:red;stroke-width:10"/>
<line x1="16278" y1="14843" x2="16655" y2="14843" style="stroke:red;stroke-width:10"/>
<line x1="16655" y1="14843" x2="16655" y2="14097" style="stroke:red;stroke-width:10"/>
<line x1="16655" y1="14097" x2="17636" y2="14097" style="stroke:red;stroke-width:10"/>
<line x1="17636" y1="14097" x2="17636" y2="13533" style="stroke:red;stroke-width:10"/>
<line x1="17636" y1="13533" x2="18765" y2="13533" style="stroke:red;stroke-width:10"/>
<line x1="18765" y1="13533" x2="18765" y2="12579" style="stroke:red;stroke-width:10"/>
<line x1="18765" y1="12579" x2="19557" y2="12579" style="stroke:red;stroke-width:10"/>
<line x1="19557" y1="12579" x2="19557" y2="11698" style="stroke:red;stroke-width:10"/>
<line x1="19557" y1="11698" x2="20420" y2="11698" style="stroke:red;stroke-width:10"/>
<line x1="20420" y1="11698" x2="20420" y2="11198" style="stroke:red;stroke-width:10"/>
<line x1="20420" y1="11198" x2="21574" y2="11198" style="stroke:red;stroke-width:10"/>
<line x1="21574" y1="11198" x2="21574" y2="10215" style="stroke:red;stroke-width:10"/>
<line x1="21574" y1="10215" x2="22375" y2="10215" style="stroke:red;stroke-width:10"/>
<line x1="22375" y1="10215" x2="22375" y2="9824" style="stroke:red;stroke-width:10"/>
<line x1="22375" y1="9824" x2="23586" y2="9824" style="stroke:red;stroke-width:10"/>
<line x1="23586" y1="9824" x2="23586" y2="9644" style="stroke:red;stroke-width:10"/>
<line x1="23586" y1="9644" x2="24908" y2="9644" style="stroke:red;stroke-width:10"/>
<line x1="24908" y1="9644" x2="24908" y2="8223" style="stroke:red;stroke-width:10"/>
<line x1="24908" y1="8223" x2="25470" y2="8223" style="stroke:red;stroke-width:10"/>
<line x1="25470" y1="8223" x2="25470" y2="8297" style="stroke:red;stroke-width:10"/>
<line x1="25470" y1="8297" x2="26914" y2="8297" style="stroke:red;stroke-width:10"/>
<line x1="26914" y1="8297" x2="26914" y2="7806" style="stroke:red;stroke-width:10"/>
<line x1="26914" y1="7806" x2="28020" y2="7806" style="stroke:red;stroke-width:10"/>
<line x1="28020" y1="7806" x2="28020" y2="6450" style="stroke:red;stroke-width:10"/>
<line x1="28020" y1="6450" x2="28698" y2="6450" style="stroke:red;stroke-width:10"/>
<line x1="28698" y1="6450" x2="28698" y2="6062" style="stroke:red;stroke-width:10"/>
<line x1="28698" y1="6062" x2="29871" y2="6062" style="stroke:red;stroke-width:10"/>
<line x1="29871" y1="6062" x2="29871" y2="6055" style="stroke:red;stroke-width:10"/>
<line x1="29871" y1="6055" x2="31199" y2="6055" style="stroke:red;stroke-width:10"/>
<line x1="31199" y1="6055" x2="31199" y2="4999" style="stroke:red;stroke-width:10"/>
<line x1="31199" y1="4999" x2="32082" y2="4999" style="stroke:red;stroke-width:10"/>
<line x1="32082" y1="4999" x2="32082" y2="4796" style="stroke:red;stroke-width:10"/>
<line x1="32082" y1="4796" x2="33315" y2="4796" style="stroke:red;stroke-width:10"/>
<line x1="33315" y1="4796" x2="33315" y2="4678" style="stroke:red;stroke-width:10"/>
<line x1="33315" y1="4678" x2="34565" y2="4678" style="stroke:red;stroke-width:10"/>
<line x1="34565" y1="4678" x2="34565" y2="3911" style="stroke:red;stroke-width:10"/>
<line x1="34565" y1="3911" x2="35596" y2="3911" style="stroke:red;stroke-width:10"/>
<line x1="35596" y1="3911" x2="35596" y2="3859" style="stroke:red;stroke-width:10"/>
<line x1="35596" y1="3859" x2="36853" y2="3859" style="stroke:red;stroke-width:10"/>
<line x1="36853" y1="3859" x2="36853" y2="3456" style="stroke:red;stroke-width:10"/>
<line x1="36853" y1="3456" x2="38004" y2="3456" style="stroke:red;stroke-width:10"/>
<line x1="38004" y1="3456" x2="38004" y2="3106" style="stroke:red;stroke-width:10"/>
<line x1="38004" y1="3106" x2="39173" y2="3106" style="stroke:red;stroke-width:10"/>
<line x1="39173" y1="3106" x2="39173" y2="2804" style="stroke:red;stroke-width:10"/>
<line x1="39173" y1="2804" x2="40356" y2="2804" style="stroke:red;stroke-width:10"/>
<line x1="40356" y1="2804" x2="40356" y2="2389" style="stroke:red;stroke-width:10"/>
<line x1="40356" y1="2389" x2="41521" y2="2389" style="stroke:red;stroke-width:10"/>
<line x1="41521" y1="2389" x2="41521" y2="2607" style="stroke:red;stroke-width:10"/>
<line x1="41521" y1="2607" x2="42793" y2="2607" style="stroke:red;stroke-width:10"/>
<line x1="42793" y1="2607" x2="42793" y2="2571" style="stroke:red;stroke-width:10"/>
<line x1="42793" y1="2571" x2="44013" y2="2571" style="stroke:red;stroke-width:10"/>
<line x1="44013" y1="2571" x2="44013" y2="2428" style="stroke:red;stroke-width:10"/>
<line x1="44013" y1="2428" x2="45216" y2="2428" style="stroke:red;stroke-width:10"/>
<line x1="45216" y1="2428" x2="45216" y2="2447" style="stroke:red;stroke-width:10"/>
<line x1="45216" y1="2447" x2="46432" y2="2447" style="stroke:red;stroke-width:10"/>
<line x1="46432" y1="2447" x2="46432" y2="1680" style="stroke:red;stroke-width:10"/>
<line x1="46432" y1="1680" x2="47603" y2="1680" style="stroke:red;stroke-width:10"/>
<line x1="47603" y1="1680" x2="47603" y2="2021" style="stroke:red;stroke-width:10"/>
<line x1="47603" y1="2021" x2="48837" y2="2021" style="stroke:red;stroke-width:10"/>
<line x1="48837" y1="2021" x2="48837" y2="1869" style="stroke:red;stroke-width:10"/>
<line x1="48837" y1="1869" x2="50053" y2="1869" style="stroke:red;stroke-width:10"/>
<line x1="50053" y1="1869" x2="50053" y2="1772" style="stroke:red;stroke-width:10"/>
<line x1="50053" y1="1772" x2="51276" y2="1772" style="stroke:red;stroke-width:10"/>
<line x1="51276" y1="1772" x2="51276" y2="1690" style="stroke:red;stroke-width:10"/>
<line x1="51276" y1="1690" x2="52504" y2="1690" style="stroke:red;stroke-width:10"/>
<line x1="52504" y1="1690" x2="52504" y2="1887" style="stroke:red;stroke-width:10"/>
<line x1="52504" y1="1887" x2="53717" y2="1887" style="stroke:red;stroke-width:10"/>
<line x1="53717" y1="1887" x2="53717" y2="2639" style="stroke:red;stroke-width:10"/>
<line x1="53717" y1="2639" x2="54869" y2="2639" style="stroke:red;stroke-width:10"/>
<line x1="54869" y1="2639" x2="54869" y2="2254" style="stroke:red;stroke-width:10"/>
<line x1="54869" y1="2254" x2="56135" y2="2254" style="stroke:red;stroke-width:10"/>
<line x1="56135" y1="2254" x2="56135" y2="2213" style="stroke:red;stroke-width:10"/>
<line x1="56135" y1="2213" x2="57375" y2="2213" style="stroke:red;stroke-width:10"/>
<line x1="57375" y1="2213" x2="57375" y2="2636" style="stroke:red;stroke-width:10"/>
<line x1="57375" y1="2636" x2="58543" y2="2636" style="stroke:red;stroke-width:10"/>
<line x1="58543" y1="2636" x2="58543" y2="2935" style="stroke:red;stroke-width:10"/>
<line x1="58543" y1="2935" x2="59726" y2="2935" style="stroke:red;stroke-width:10"/>
<line x1="59726" y1="2935" x2="59726" y2="2834" style="stroke:red;stroke-width:10"/>
<line x1="59726" y1="2834" x2="61000" y2="2834" style="stroke:red;stroke-width:10"/>
<line x1="61000" y1="2834" x2="61000" y2="3779" style="stroke:red;stroke-width:10"/>
<line x1="61000" y1="3779" x2="62022" y2="3779" style="stroke:red;stroke-width:10"/>
<line x1="62022" y1="3779" x2="62022" y2="3627" style="stroke:red;stroke-width:10"/>
<line x1="62022" y1="3627" x2="63324" y2="3627" style="stroke:red;stroke-width:10"/>
<line x1="63324" y1="3627" x2="63324" y2="4588" style="stroke:red;stroke-width:10"/>
<line x1="63324" y1="4588" x2="64303" y2="4588" style="stroke:red;stroke-width:10"/>
<line x1="64303" y1="4588" x2="64303" y2="4285" style="stroke:red;stroke-width:10"/>
<line x1="64303" y1="4285" x2="65682" y2="4285" style="stroke:red;stroke-width:10"/>
<line x1="65682" y1="4285" x2="65682" y2="5393" style="stroke:red;stroke-width:10"/>
<line x1="65682" y1="5393" x2="66577" y2="5393" style="stroke:red;stroke-width:10"/>
<line x1="66577" y1="5393" x2="66577" y2="5783" style="stroke:red;stroke-width:10"/>
<line x1="66577" y1="5783" x2="67719" y2="5783" style="stroke:red;stroke-width:10"/>
<line x1="67719" y1="5783" x2="67719" y2="5911" style="stroke:red;stroke-width:10"/>
<line x1="67719" y1="5911" x2="68978" y2="5911" style="stroke:red;stroke-width:10"/>
<line x1="68978" y1="5911" x2="68978" y2="6592" style="stroke:red;stroke-width:10"/>
<line x1="68978" y1="6592" x2="70003" y2="6592" style="stroke:red;stroke-width:10"/>
<line x1="70003" y1="6592" x2="70003" y2="6589" style="stroke:red;stroke-width:10"/>
<line x1="70003" y1="6589" x2="71354" y2="6589" style="stroke:red;stroke-width:10"/>
<line x1="71354" y1="6589" x2="71354" y2="7560" style="stroke:red;stroke-width:10"/>
<line x1="71354" y1="7560" x2="72228" y2="7560" style="stroke:red;stroke-width:10"/>
<line x1="72228" y1="7560" x2="72228" y2="7995" style="stroke:red;stroke-width:10"/>
<line x1="72228" y1="7995" x2="73375" y2="7995" style="stroke:red;stroke-width:10"/>
<line x1="73375" y1="7995" x2="73375" y2="8613" style="stroke:red;stroke-width:10"/>
<line x1="73375" y1="8613" x2="74425" y2="8613" style="stroke:red;stroke-width:10"/>
<line x1="74425" y1="8613" x2="74425" y2="9716" style="stroke:red;stroke-width:10"/>
<line x1="74425" y1="9716" x2="75171" y2="9716" style="stroke:red;stroke-width:10"/>
<line x1="75171" y1="9716" x2="75171" y2="9581" style="stroke:red;stroke-width:10"/>
<line x1="75171" y1="9581" x2="76702" y2="9581" style="stroke:red;stroke-width:10"/>
<line x1="76702" y1="9581" x2="76702" y2="10462" style="stroke:red;stroke-width:10"/>
<line x1="76702" y1="10462" x2="77584" y2="10462" style="stroke:red;stroke-width:10"/>
<line x1="77584" y1="10462" x2="77584" y2="11001" style="stroke:red;stroke-width:10"/>
<line x1="77584" y1="11001" x2="78704" y2="11001" style="stroke:red;stroke-width:10"/>
<line x1="78704" y1="11001" x2="78704" y2="12151" style="stroke:red;stroke-width:10"/>
<line x1="78704" y1="12151" x2="79364" y2="12151" style="stroke:red;stroke-width:10"/>
<line x1="79364" y1="12151" x2="79364" y2="13033" style="stroke:red;stroke-width:10"/>
<line x1="79364" y1="13033" x2="80210" y2="13033" style="stroke:red;stroke-width:10"/>
<line x1="80210" y1="13033" x2="80210" y2="13724" style="stroke:red;stroke-width:10"/>
<line x1="80210" y1="13724" x2="81211" y2="13724" style="stroke:red;stroke-width:10"/>
<line x1="81211" y1="13724" x2="81211" y2="14446" style="stroke:red;stroke-width:10"/>
<line x1="81211" y1="14446" x2="82193" y2="14446" style="stroke:red;stroke-width:10"/>
<line x1="82193" y1="14446" x2="82193" y2="14993" style="stroke:red;stroke-width:10"/>
<line x1="82193" y1="14993" x2="83350" y2="14993" style="stroke:red;stroke-width:10"/>
<line x1="83350" y1="14993" x2="83350" y2="16232" style="stroke:red;stroke-width:10"/>
<line x1="83350" y1="16232" x2="83843" y2="16232" style="stroke:red;stroke-width:10"/>
<line x1="83843" y1="16232" x2="83843" y2="17156" style="stroke:red;stroke-width:10"/>
<line x1="83843" y1="17156" x2="84628" y2="17156" style="stroke:red;stroke-width:10"/>
<line x1="84628" y1="17156" x2="84628" y2="17876" style="stroke:red;stroke-width:10"/>
<line x1="84628" y1="17876" x2="85635" y2="17876" style="stroke:red;stroke-width:10"/>
<line x1="85635" y1="17876" x2="85635" y2="18745" style="stroke:red;stroke-width:10"/>
<line x1="85635" y1="18745" x2="86489" y2="18745" style="stroke:red;stroke-width:10"/>
<line x1="86489" y1="18745" x2="86489" y2="19461" style="stroke:red;stroke-width:10"/>
<line x1="86489" y1="19461" x2="87537" y2="19461" style="stroke:red;stroke-width:10"/>
<line x1="87537" y1="19461" x2="87537" y2="20583" style="stroke:red;stroke-width:10"/>
<line x1="87537" y1="20583" x2="88090" y2="20583" style="stroke:red;stroke-width:10"/>
<line x1="88090" y1="20583" x2="88090" y2="21887" style="stroke:red;stroke-width:10"/>
<line x1="88090" y1="21887" x2="88373" y2="21887" style="stroke:red;stroke-width:10"/>
<line x1="88373" y1="21887" x2="88373" y2="22683" style="stroke:red;stroke-width:10"/>
<line x1="88373" y1="22683" x2="89339" y2="22683" style="stroke:red;stroke-width:10"/>
<line x1="89339" y1="22683" x2="89339" y2="23695" style="stroke:red;stroke-width:10"/>
<line x1="89339" y1="23695" x2="90010" y2="23695" style="stroke:red;stroke-width:10"/>
<line x1="90010" y1="23695" x2="90010" y2="24470" style="stroke:red;stroke-width:10"/>
<line x1="90010" y1="24470" x2="91059" y2="24470" style="stroke:red;stroke-width:10"/>
<line x1="91059" y1="24470" x2="91059" y2="25842" style="stroke:red;stroke-width:10"/>
<line x1="91059" y1="25842" x2="91143" y2="25842" style="stroke:red;stroke-width:10"/>
<line x1="91143" y1="25842" x2="91143" y2="26911" style="stroke:red;stroke-width:10"/>
<line x1="91143" y1="26911" x2="91707" y2="26911" style="stroke:red;stroke-width:10"/>
<line x1="91707" y1="26911" x2="91707" y2="27994" style="stroke:red;stroke-width:10"/>
<line x1="91707" y1="27994" x2="92241" y2="27994" style="stroke:red;stroke-width:10"/>
<line x1="92241" y1="27994" x2="92241" y2="28841" style="stroke:red;stroke-width:10"/>
<line x1="92241" y1="28841" x2="93256" y2="28841" style="stroke:red;stroke-width:10"/>
<line x1="93256" y1="28841" x2="93256" y2="29905" style="stroke:red;stroke-width:10"/>
<line x1="93256" y1="29905" x2="93862" y2="29905" style="stroke:red;stroke-width:10"/>
<line x1="93862" y1="29905" x2="93862" y2="31201" style="stroke:red;stroke-width:10"/>
<line x1="93862" y1="31201" x2="93941" y2="31201" style="stroke:red;stroke-width:10"/>
<line x1="93941" y1="31201" x2="93941" y2="32160" style="stroke:red;stroke-width:10"/>
<line x1="93941" y1="32160" x2="94806" y2="32160" style="stroke:red;stroke-width:10"/>
<line x1="94806" y1="32160" x2="94806" y2="33405" style="stroke:red;stroke-width:10"/>
<line x1="94806" y1="33405" x2="94959" y2="33405" style="stroke:red;stroke-width:10"/>
<line x1="94959" y1="33405" x2="94959" y2="34485" style="stroke:red;stroke-width:10"/>
<line x1="94959" y1="34485" x2="95554" y2="34485" style="stroke:red;stroke-width:10"/>
<line x1="95554" y1="34485" x2="95554" y2="35605" style="stroke:red;stroke-width:10"/>
<line x1="95554" y1="35605" x2="96058" y2="35605" style="stroke:red;stroke-width:10"/>
<line x1="96058" y1="35605" x2="96058" y2="36871" style="stroke:red;stroke-width:10"/>
<line x1="96058" y1="36871" x2="96077" y2="36871" style="stroke:red;stroke-width:10"/>
<line x1="96077" y1="36871" x2="96077" y2="37993" style="stroke:red;stroke-width:10"/>
<line x1="96077" y1="37993" x2="96585" y2="37993" style="stroke:red;stroke-width:10"/>
<line x1="96585" y1="37993" x2="96585" y2="39275" style="stroke:red;stroke-width:10"/>
<line x1="96585" y1="39275" x2="96451" y2="39275" style="stroke:red;stroke-width:10"/>
<line x1="96451" y1="39275" x2="96451" y2="40374" style="stroke:red;stroke-width:10"/>
<line x1="96451" y1="40374" x2="97105" y2="40374" style="stroke:red;stroke-width:10"/>
<line x1="97105" y1="40374" x2="97105" y2="41575" style="stroke:red;stroke-width:10"/>
<line x1="97105" y1="41575" x2="97306" y2="41575" style="stroke:red;stroke-width:10"/>
<line x1="97306" y1="41575" x2="97306" y2="42763" style="stroke:red;stroke-width:10"/>
<line x1="97306" y1="42763" x2="97591" y2="42763" style="stroke:red;stroke-width:10"/>
<line x1="97591" y1="42763" x2="97591" y2="43998" style="stroke:red;stroke-width:10"/>
<line x1="97591" y1="43998" x2="97544" y2="43998" style="stroke:red;stroke-width:10"/>
<line x1="97544" y1="43998" x2="97544" y2="45175" style="stroke:red;stroke-width:10"/>
<line x1="97544" y1="45175" x2="97975" y2="45175" style="stroke:red;stroke-width:10"/>
<line x1="97975" y1="45175" x2="97975" y2="46393" style="stroke:red;stroke-width:10"/>
<line x1="97975" y1="46393" x2="98073" y2="46393" style="stroke:red;stroke-width:10"/>
<line x1="98073" y1="46393" x2="98073" y2="47615" style="stroke:red;stroke-width:10"/>
<line x1="98073" y1="47615" x2="98070" y2="47615" style="stroke:red;stroke-width:10"/>
<line x1="98070" y1="47615" x2="98070" y2="48828" style="stroke:red;stroke-width:10"/>
<line x1="98070" y1="48828" x2="98354" y2="48828" style="stroke:red;stroke-width:10"/>
<line x1="98354" y1="48828" x2="98354" y2="50053" style="stroke:red;stroke-width:10"/>
</svg>
