<svg height="100000" width="100000">
<line x1="97983" y1="97983" x2="50053" y2="51272" style="stroke:black;stroke-width:5" />
<line x1="97983" y1="98081" x2="51272" y2="51272" style="stroke:black;stroke-width:5" />
<line x1="98081" y1="98081" x2="51272" y2="52481" style="stroke:black;stroke-width:5" />
<line x1="98081" y1="97881" x2="52481" y2="52481" style="stroke:black;stroke-width:5" />
<line x1="97881" y1="97881" x2="52481" y2="53667" style="stroke:black;stroke-width:5" />
<line x1="97881" y1="97463" x2="53667" y2="53667" style="stroke:black;stroke-width:5" />
<line x1="97463" y1="97463" x2="53667" y2="54904" style="stroke:black;stroke-width:5" />
<line x1="97463" y1="97700" x2="54904" y2="54904" style="stroke:black;stroke-width:5" />
<line x1="97700" y1="97700" x2="54904" y2="56059" style="stroke:black;stroke-width:5" />
<line x1="97700" y1="97159" x2="56059" y2="56059" style="stroke:black;stroke-width:5" />
<line x1="97159" y1="97159" x2="56059" y2="57282" style="stroke:black;stroke-width:5" />
<line x1="97159" y1="97184" x2="57282" y2="57282" style="stroke:black;stroke-width:5" />
<line x1="97184" y1="97184" x2="57282" y2="58545" style="stroke:black;stroke-width:5" />
<line x1="97184" y1="97373" x2="58545" y2="58545" style="stroke:black;stroke-width:5" />
<line x1="97373" y1="97373" x2="58545" y2="59685" style="stroke:black;stroke-width:5" />
<line x1="97373" y1="96864" x2="59685" y2="59685" style="stroke:black;stroke-width:5" />
<line x1="96864" y1="96864" x2="59685" y2="60915" style="stroke:black;stroke-width:5" />
<line x1="96864" y1="96799" x2="60915" y2="60915" style="stroke:black;stroke-width:5" />
<line x1="96799" y1="96799" x2="60915" y2="62109" style="stroke:black;stroke-width:5" />
<line x1="96799" y1="96555" x2="62109" y2="62109" style="stroke:black;stroke-width:5" />
<line x1="96555" y1="96555" x2="62109" y2="63248" style="stroke:black;stroke-width:5" />
<line x1="96555" y1="96107" x2="63248" y2="63248" style="stroke:black;stroke-width:5" />
<line x1="96107" y1="96107" x2="63248" y2="64456" style="stroke:black;stroke-width:5" />
<line x1="96107" y1="95897" x2="64456" y2="64456" style="stroke:black;stroke-width:5" />
<line x1="95897" y1="95897" x2="64456" y2="65545" style="stroke:black;stroke-width:5" />
<line x1="95897" y1="95315" x2="65545" y2="65545" style="stroke:black;stroke-width:5" />
<line x1="95315" y1="95315" x2="65545" y2="66585" style="stroke:black;stroke-width:5" />
<line x1="95315" y1="94629" x2="66585" y2="66585" style="stroke:black;stroke-width:5" />
<line x1="94629" y1="94629" x2="66585" y2="67764" style="stroke:black;stroke-width:5" />
<line x1="94629" y1="94328" x2="67764" y2="67764" style="stroke:black;stroke-width:5" />
<line x1="94328" y1="94328" x2="67764" y2="69172" style="stroke:black;stroke-width:5" />
<line x1="94328" y1="94540" x2="69172" y2="69172" style="stroke:black;stroke-width:5" />
<line x1="94540" y1="94540" x2="69172" y2="69995" style="stroke:black;stroke-width:5" />
<line x1="94540" y1="93389" x2="69995" y2="69995" style="stroke:black;stroke-width:5" />
<line x1="93389" y1="93389" x2="69995" y2="71085" style="stroke:black;stroke-width:5" />
<line x1="93389" y1="92864" x2="71085" y2="71085" style="stroke:black;stroke-width:5" />
<line x1="92864" y1="92864" x2="71085" y2="72330" style="stroke:black;stroke-width:5" />
<line x1="92864" y1="92633" x2="72330" y2="72330" style="stroke:black;stroke-width:5" />
<line x1="92633" y1="92633" x2="72330" y2="73150" style="stroke:black;stroke-width:5" />
<line x1="92633" y1="91598" x2="73150" y2="73150" style="stroke:black;stroke-width:5" />
<line x1="91598" y1="91598" x2="73150" y2="74517" style="stroke:black;stroke-width:5" />
<line x1="91598" y1="91543" x2="74517" y2="74517" style="stroke:black;stroke-width:5" />
<line x1="91543" y1="91543" x2="74517" y2="75344" style="stroke:black;stroke-width:5" />
<line x1="91543" y1="90561" x2="75344" y2="75344" style="stroke:black;stroke-width:5" />
<line x1="90561" y1="90561" x2="75344" y2="76326" style="stroke:black;stroke-width:5" />
<line x1="90561" y1="89848" x2="76326" y2="76326" style="stroke:black;stroke-width:5" />
<line x1="89848" y1="89848" x2="76326" y2="77330" style="stroke:black;stroke-width:5" />
<line x1="89848" y1="89173" x2="77330" y2="77330" style="stroke:black;stroke-width:5" />
<line x1="89173" y1="89173" x2="77330" y2="78233" style="stroke:black;stroke-width:5" />
<line x1="89173" y1="88358" x2="78233" y2="78233" style="stroke:black;stroke-width:5" />
<line x1="88358" y1="88358" x2="78233" y2="79634" style="stroke:black;stroke-width:5" />
<line x1="88358" y1="88196" x2="79634" y2="79634" style="stroke:black;stroke-width:5" />
<line x1="88196" y1="88196" x2="79634" y2="80222" style="stroke:black;stroke-width:5" />
<line x1="88196" y1="86980" x2="80222" y2="80222" style="stroke:black;stroke-width:5" />
<line x1="86980" y1="86980" x2="80222" y2="81182" style="stroke:black;stroke-width:5" />
<line x1="86980" y1="86240" x2="81182" y2="81182" style="stroke:black;stroke-width:5" />
<line x1="86240" y1="86240" x2="81182" y2="81977" style="stroke:black;stroke-width:5" />
<line x1="86240" y1="85314" x2="81977" y2="81977" style="stroke:black;stroke-width:5" />
<line x1="85314" y1="85314" x2="81977" y2="82797" style="stroke:black;stroke-width:5" />
<line x1="85314" y1="84425" x2="82797" y2="82797" style="stroke:black;stroke-width:5" />
<line x1="84425" y1="84425" x2="82797" y2="84002" style="stroke:black;stroke-width:5" />
<line x1="84425" y1="83926" x2="84002" y2="84002" style="stroke:black;stroke-width:5" />
<line x1="83926" y1="83926" x2="84002" y2="84700" style="stroke:black;stroke-width:5" />
<line x1="83926" y1="82911" x2="84700" y2="84700" style="stroke:black;stroke-width:5" />
<line x1="82911" y1="82911" x2="84700" y2="85398" style="stroke:black;stroke-width:5" />
<line x1="82911" y1="81909" x2="85398" y2="85398" style="stroke:black;stroke-width:5" />
<line x1="81909" y1="81909" x2="85398" y2="86349" style="stroke:black;stroke-width:5" />
<line x1="81909" y1="81134" x2="86349" y2="86349" style="stroke:black;stroke-width:5" />
<line x1="81134" y1="81134" x2="86349" y2="87579" style="stroke:black;stroke-width:5" />
<line x1="81134" y1="80571" x2="87579" y2="87579" style="stroke:black;stroke-width:5" />
<line x1="80571" y1="80571" x2="87579" y2="87721" style="stroke:black;stroke-width:5" />
<line x1="80571" y1="79130" x2="87721" y2="87721" style="stroke:black;stroke-width:5" />
<line x1="79130" y1="79130" x2="87721" y2="88715" style="stroke:black;stroke-width:5" />
<line x1="79130" y1="78362" x2="88715" y2="88715" style="stroke:black;stroke-width:5" />
<line x1="78362" y1="78362" x2="88715" y2="89085" style="stroke:black;stroke-width:5" />
<line x1="78362" y1="77139" x2="89085" y2="89085" style="stroke:black;stroke-width:5" />
<line x1="77139" y1="77139" x2="89085" y2="89746" style="stroke:black;stroke-width:5" />
<line x1="77139" y1="76131" x2="89746" y2="89746" style="stroke:black;stroke-width:5" />
<line x1="76131" y1="76131" x2="89746" y2="90468" style="stroke:black;stroke-width:5" />
<line x1="76131" y1="75161" x2="90468" y2="90468" style="stroke:black;stroke-width:5" />
<line x1="75161" y1="75161" x2="90468" y2="91174" style="stroke:black;stroke-width:5" />
<line x1="75161" y1="74176" x2="91174" y2="91174" style="stroke:black;stroke-width:5" />
<line x1="74176" y1="74176" x2="91174" y2="91774" style="stroke:black;stroke-width:5" />
<line x1="74176" y1="73125" x2="91774" y2="91774" style="stroke:black;stroke-width:5" />
<line x1="73125" y1="73125" x2="91774" y2="92221" style="stroke:black;stroke-width:5" />
<line x1="73125" y1="71994" x2="92221" y2="92221" style="stroke:black;stroke-width:5" />
<line x1="71994" y1="71994" x2="92221" y2="93245" style="stroke:black;stroke-width:5" />
<line x1="71994" y1="71153" x2="93245" y2="93245" style="stroke:black;stroke-width:5" />
<line x1="71153" y1="71153" x2="93245" y2="93376" style="stroke:black;stroke-width:5" />
<line x1="71153" y1="69871" x2="93376" y2="93376" style="stroke:black;stroke-width:5" />
<line x1="69871" y1="69871" x2="93376" y2="94012" style="stroke:black;stroke-width:5" />
<line x1="69871" y1="68828" x2="94012" y2="94012" style="stroke:black;stroke-width:5" />
<line x1="68828" y1="68828" x2="94012" y2="94197" style="stroke:black;stroke-width:5" />
<line x1="68828" y1="67597" x2="94197" y2="94197" style="stroke:black;stroke-width:5" />
<line x1="67597" y1="67597" x2="94197" y2="95225" style="stroke:black;stroke-width:5" />
<line x1="67597" y1="66692" x2="95225" y2="95225" style="stroke:black;stroke-width:5" />
<line x1="66692" y1="66692" x2="95225" y2="95453" style="stroke:black;stroke-width:5" />
<line x1="66692" y1="65479" x2="95453" y2="95453" style="stroke:black;stroke-width:5" />
<line x1="65479" y1="65479" x2="95453" y2="96056" style="stroke:black;stroke-width:5" />
<line x1="65479" y1="64393" x2="96056" y2="96056" style="stroke:black;stroke-width:5" />
<line x1="64393" y1="64393" x2="96056" y2="96311" style="stroke:black;stroke-width:5" />
<line x1="64393" y1="63195" x2="96311" y2="96311" style="stroke:black;stroke-width:5" />
<line x1="63195" y1="63195" x2="96311" y2="96574" style="stroke:black;stroke-width:5" />
<line x1="63195" y1="62003" x2="96574" y2="96574" style="stroke:black;stroke-width:5" />
<line x1="62003" y1="62003" x2="96574" y2="96897" style="stroke:black;stroke-width:5" />
<line x1="62003" y1="60827" x2="96897" y2="96897" style="stroke:black;stroke-width:5" />
<line x1="60827" y1="60827" x2="96897" y2="97188" style="stroke:black;stroke-width:5" />
<line x1="60827" y1="59642" x2="97188" y2="97188" style="stroke:black;stroke-width:5" />
<line x1="59642" y1="59642" x2="97188" y2="97543" style="stroke:black;stroke-width:5" />
<line x1="59642" y1="58466" x2="97543" y2="97543" style="stroke:black;stroke-width:5" />
<line x1="58466" y1="58466" x2="97543" y2="97614" style="stroke:black;stroke-width:5" />
<line x1="58466" y1="57239" x2="97614" y2="97614" style="stroke:black;stroke-width:5" />
<line x1="57239" y1="57239" x2="97614" y2="97808" style="stroke:black;stroke-width:5" />
<line x1="57239" y1="56034" x2="97808" y2="97808" style="stroke:black;stroke-width:5" />
<line x1="56034" y1="56034" x2="97808" y2="98242" style="stroke:black;stroke-width:5" />
<line x1="56034" y1="54851" x2="98242" y2="98242" style="stroke:black;stroke-width:5" />
<line x1="54851" y1="54851" x2="98242" y2="97860" style="stroke:black;stroke-width:5" />
<line x1="54851" y1="53590" x2="97860" y2="97860" style="stroke:black;stroke-width:5" />
<line x1="53590" y1="53590" x2="97860" y2="97999" style="stroke:black;stroke-width:5" />
<line x1="53590" y1="52380" x2="97999" y2="97999" style="stroke:black;stroke-width:5" />
<line x1="52380" y1="52380" x2="97999" y2="97943" style="stroke:black;stroke-width:5" />
<line x1="52380" y1="51161" x2="97943" y2="97943" style="stroke:black;stroke-width:5" />
<line x1="51161" y1="51161" x2="97943" y2="98011" style="stroke:black;stroke-width:5" />
<line x1="51161" y1="49946" x2="98011" y2="98011" style="stroke:black;stroke-width:5" />
<line x1="49946" y1="49946" x2="98011" y2="97582" style="stroke:black;stroke-width:5" />
<line x1="49946" y1="48741" x2="97582" y2="97582" style="stroke:black;stroke-width:5" />
<line x1="48741" y1="48741" x2="97582" y2="97833" style="stroke:black;stroke-width:5" />
<line x1="48741" y1="47520" x2="97833" y2="97833" style="stroke:black;stroke-width:5" />
<line x1="47520" y1="47520" x2="97833" y2="98238" style="stroke:black;stroke-width:5" />
<line x1="47520" y1="46272" x2="98238" y2="98238" style="stroke:black;stroke-width:5" />
<line x1="46272" y1="46272" x2="98238" y2="97470" style="stroke:black;stroke-width:5" />
<line x1="46272" y1="45119" x2="97470" y2="97470" style="stroke:black;stroke-width:5" />
<line x1="45119" y1="45119" x2="97470" y2="97392" style="stroke:black;stroke-width:5" />
<line x1="45119" y1="43910" x2="97392" y2="97392" style="stroke:black;stroke-width:5" />
<line x1="43910" y1="43910" x2="97392" y2="97537" style="stroke:black;stroke-width:5" />
<line x1="43910" y1="42663" x2="97537" y2="97537" style="stroke:black;stroke-width:5" />
<line x1="42663" y1="42663" x2="97537" y2="97352" style="stroke:black;stroke-width:5" />
<line x1="42663" y1="41458" x2="97352" y2="97352" style="stroke:black;stroke-width:5" />
<line x1="41458" y1="41458" x2="97352" y2="96921" style="stroke:black;stroke-width:5" />
<line x1="41458" y1="40302" x2="96921" y2="96921" style="stroke:black;stroke-width:5" />
<line x1="40302" y1="40302" x2="96921" y2="96676" style="stroke:black;stroke-width:5" />
<line x1="40302" y1="39113" x2="96676" y2="96676" style="stroke:black;stroke-width:5" />
<line x1="39113" y1="39113" x2="96676" y2="95972" style="stroke:black;stroke-width:5" />
<line x1="39113" y1="38042" x2="95972" y2="95972" style="stroke:black;stroke-width:5" />
<line x1="38042" y1="38042" x2="95972" y2="96219" style="stroke:black;stroke-width:5" />
<line x1="38042" y1="36719" x2="96219" y2="96219" style="stroke:black;stroke-width:5" />
<line x1="36719" y1="36719" x2="96219" y2="95665" style="stroke:black;stroke-width:5" />
<line x1="36719" y1="35616" x2="95665" y2="95665" style="stroke:black;stroke-width:5" />
<line x1="35616" y1="35616" x2="95665" y2="95612" style="stroke:black;stroke-width:5" />
<line x1="35616" y1="34352" x2="95612" y2="95612" style="stroke:black;stroke-width:5" />
<line x1="34352" y1="34352" x2="95612" y2="94722" style="stroke:black;stroke-width:5" />
<line x1="34352" y1="33379" x2="94722" y2="94722" style="stroke:black;stroke-width:5" />
<line x1="33379" y1="33379" x2="94722" y2="94853" style="stroke:black;stroke-width:5" />
<line x1="33379" y1="32025" x2="94853" y2="94853" style="stroke:black;stroke-width:5" />
<line x1="32025" y1="32025" x2="94853" y2="94480" style="stroke:black;stroke-width:5" />
<line x1="32025" y1="30853" x2="94480" y2="94480" style="stroke:black;stroke-width:5" />
<line x1="30853" y1="30853" x2="94480" y2="93502" style="stroke:black;stroke-width:5" />
<line x1="30853" y1="29952" x2="93502" y2="93502" style="stroke:black;stroke-width:5" />
<line x1="29952" y1="29952" x2="93502" y2="92871" style="stroke:black;stroke-width:5" />
<line x1="29952" y1="28910" x2="92871" y2="92871" style="stroke:black;stroke-width:5" />
<line x1="28910" y1="28910" x2="92871" y2="92515" style="stroke:black;stroke-width:5" />
<line x1="28910" y1="27731" x2="92515" y2="92515" style="stroke:black;stroke-width:5" />
<line x1="27731" y1="27731" x2="92515" y2="91799" style="stroke:black;stroke-width:5" />
<line x1="27731" y1="26738" x2="91799" y2="91799" style="stroke:black;stroke-width:5" />
<line x1="26738" y1="26738" x2="91799" y2="91502" style="stroke:black;stroke-width:5" />
<line x1="26738" y1="25506" x2="91502" y2="91502" style="stroke:black;stroke-width:5" />
<line x1="25506" y1="25506" x2="91502" y2="90321" style="stroke:black;stroke-width:5" />
<line x1="25506" y1="24804" x2="90321" y2="90321" style="stroke:black;stroke-width:5" />
<line x1="24804" y1="24804" x2="90321" y2="89940" style="stroke:black;stroke-width:5" />
<line x1="24804" y1="23612" x2="89940" y2="89940" style="stroke:black;stroke-width:5" />
<line x1="23612" y1="23612" x2="89940" y2="89318" style="stroke:black;stroke-width:5" />
<line x1="23612" y1="22568" x2="89318" y2="89318" style="stroke:black;stroke-width:5" />
<line x1="22568" y1="22568" x2="89318" y2="88844" style="stroke:black;stroke-width:5" />
<line x1="22568" y1="21408" x2="88844" y2="88844" style="stroke:black;stroke-width:5" />
<line x1="21408" y1="21408" x2="88844" y2="87806" style="stroke:black;stroke-width:5" />
<line x1="21408" y1="20668" x2="87806" y2="87806" style="stroke:black;stroke-width:5" />
<line x1="20668" y1="20668" x2="87806" y2="87179" style="stroke:black;stroke-width:5" />
<line x1="20668" y1="19615" x2="87179" y2="87179" style="stroke:black;stroke-width:5" />
<line x1="19615" y1="19615" x2="87179" y2="86059" style="stroke:black;stroke-width:5" />
<line x1="19615" y1="18974" x2="86059" y2="86059" style="stroke:black;stroke-width:5" />
<line x1="18974" y1="18974" x2="86059" y2="85374" style="stroke:black;stroke-width:5" />
<line x1="18974" y1="17968" x2="85374" y2="85374" style="stroke:black;stroke-width:5" />
<line x1="17968" y1="17968" x2="85374" y2="85086" style="stroke:black;stroke-width:5" />
<line x1="17968" y1="16572" x2="85086" y2="85086" style="stroke:black;stroke-width:5" />
<line x1="16572" y1="16572" x2="85086" y2="84247" style="stroke:black;stroke-width:5" />
<line x1="16572" y1="15675" x2="84247" y2="84247" style="stroke:black;stroke-width:5" />
<line x1="15675" y1="15675" x2="84247" y2="82863" style="stroke:black;stroke-width:5" />
<line x1="15675" y1="15350" x2="82863" y2="82863" style="stroke:black;stroke-width:5" />
<line x1="15350" y1="15350" x2="82863" y2="82289" style="stroke:black;stroke-width:5" />
<line x1="15350" y1="14179" x2="82289" y2="82289" style="stroke:black;stroke-width:5" />
<line x1="14179" y1="14179" x2="82289" y2="81123" style="stroke:black;stroke-width:5" />
<line x1="14179" y1="13663" x2="81123" y2="81123" style="stroke:black;stroke-width:5" />
<line x1="13663" y1="13663" x2="81123" y2="80392" style="stroke:black;stroke-width:5" />
<line x1="13663" y1="12641" x2="80392" y2="80392" style="stroke:black;stroke-width:5" />
<line x1="12641" y1="12641" x2="80392" y2="79291" style="stroke:black;stroke-width:5" />
<line x1="12641" y1="12070" x2="79291" y2="79291" style="stroke:black;stroke-width:5" />
<line x1="12070" y1="12070" x2="79291" y2="78161" style="stroke:black;stroke-width:5" />
<line x1="12070" y1="11559" x2="78161" y2="78161" style="stroke:black;stroke-width:5" />
<line x1="11559" y1="11559" x2="78161" y2="77180" style="stroke:black;stroke-width:5" />
<line x1="11559" y1="10855" x2="77180" y2="77180" style="stroke:black;stroke-width:5" />
<line x1="10855" y1="10855" x2="77180" y2="76109" style="stroke:black;stroke-width:5" />
<line x1="10855" y1="10287" x2="76109" y2="76109" style="stroke:black;stroke-width:5" />
<line x1="10287" y1="10287" x2="76109" y2="75380" style="stroke:black;stroke-width:5" />
<line x1="10287" y1="9178" x2="75380" y2="75380" style="stroke:black;stroke-width:5" />
<line x1="9178" y1="9178" x2="75380" y2="74344" style="stroke:black;stroke-width:5" />
<line x1="9178" y1="8538" x2="74344" y2="74344" style="stroke:black;stroke-width:5" />
<line x1="8538" y1="8538" x2="74344" y2="73348" style="stroke:black;stroke-width:5" />
<line x1="8538" y1="7823" x2="73348" y2="73348" style="stroke:black;stroke-width:5" />
<line x1="7823" y1="7823" x2="73348" y2="72044" style="stroke:black;stroke-width:5" />
<line x1="7823" y1="7683" x2="72044" y2="72044" style="stroke:black;stroke-width:5" />
<line x1="7683" y1="7683" x2="72044" y2="71181" style="stroke:black;stroke-width:5" />
<line x1="7683" y1="6695" x2="71181" y2="71181" style="stroke:black;stroke-width:5" />
<line x1="6695" y1="6695" x2="71181" y2="70140" style="stroke:black;stroke-width:5" />
<line x1="6695" y1="6035" x2="70140" y2="70140" style="stroke:black;stroke-width:5" />
<line x1="6035" y1="6035" x2="70140" y2="68827" style="stroke:black;stroke-width:5" />
<line x1="6035" y1="5991" x2="68827" y2="68827" style="stroke:black;stroke-width:5" />
<line x1="5991" y1="5991" x2="68827" y2="67926" style="stroke:black;stroke-width:5" />
<line x1="5991" y1="4976" x2="67926" y2="67926" style="stroke:black;stroke-width:5" />
<line x1="4976" y1="4976" x2="67926" y2="66458" style="stroke:black;stroke-width:5" />
<line x1="4976" y1="5407" x2="66458" y2="66458" style="stroke:black;stroke-width:5" />
<line x1="5407" y1="5407" x2="66458" y2="65420" style="stroke:black;stroke-width:5" />
<line x1="5407" y1="4719" x2="65420" y2="65420" style="stroke:black;stroke-width:5" />
<line x1="4719" y1="4719" x2="65420" y2="64239" style="stroke:black;stroke-width:5" />
<line x1="4719" y1="4438" x2="64239" y2="64239" style="stroke:black;stroke-width:5" />
<line x1="4438" y1="4438" x2="64239" y2="63139" style="stroke:black;stroke-width:5" />
<line x1="4438" y1="3886" x2="63139" y2="63139" style="stroke:black;stroke-width:5" />
<line x1="3886" y1="3886" x2="63139" y2="61904" style="stroke:black;stroke-width:5" />
<line x1="3886" y1="3809" x2="61904" y2="61904" style="stroke:black;stroke-width:5" />
<line x1="3809" y1="3809" x2="61904" y2="60688" style="stroke:black;stroke-width:5" />
<line x1="3809" y1="3703" x2="60688" y2="60688" style="stroke:black;stroke-width:5" />
<line x1="3703" y1="3703" x2="60688" y2="59515" style="stroke:black;stroke-width:5" />
<line x1="3703" y1="3433" x2="59515" y2="59515" style="stroke:black;stroke-width:5" />
<line x1="3433" y1="3433" x2="59515" y2="58489" style="stroke:black;stroke-width:5" />
<line x1="3433" y1="2329" x2="58489" y2="58489" style="stroke:black;stroke-width:5" />
<line x1="2329" y1="2329" x2="58489" y2="57220" style="stroke:black;stroke-width:5" />
<line x1="2329" y1="2513" x2="57220" y2="57220" style="stroke:black;stroke-width:5" />
<line x1="2513" y1="2513" x2="57220" y2="55953" style="stroke:black;stroke-width:5" />
<line x1="2513" y1="2832" x2="55953" y2="55953" style="stroke:black;stroke-width:5" />
<line x1="2832" y1="2832" x2="55953" y2="54799" style="stroke:black;stroke-width:5" />
<line x1="2832" y1="2271" x2="54799" y2="54799" style="stroke:black;stroke-width:5" />
<line x1="2271" y1="2271" x2="54799" y2="53566" style="stroke:black;stroke-width:5" />
<line x1="2271" y1="2459" x2="53566" y2="53566" style="stroke:black;stroke-width:5" />
<line x1="2459" y1="2459" x2="53566" y2="52356" style="stroke:black;stroke-width:5" />
<line x1="2459" y1="2488" x2="52356" y2="52356" style="stroke:black;stroke-width:5" />
<line x1="2488" y1="2488" x2="52356" y2="51169" style="stroke:black;stroke-width:5" />
<line x1="2488" y1="1723" x2="51169" y2="51169" style="stroke:black;stroke-width:5" />
<line x1="1723" y1="1723" x2="51169" y2="50049" style="stroke:black;stroke-width:5" />
<line x1="1723" y1="94523" x2="50049" y2="50049" style="stroke:black;stroke-width:5" />
<line x1="94523" y1="94523" x2="50049" y2="48719" style="stroke:black;stroke-width:5" />
<line x1="94523" y1="1595" x2="48719" y2="48719" style="stroke:black;stroke-width:5" />
<line x1="1595" y1="1595" x2="48719" y2="47536" style="stroke:black;stroke-width:5" />
<line x1="1595" y1="2482" x2="47536" y2="47536" style="stroke:black;stroke-width:5" />
<line x1="2482" y1="2482" x2="47536" y2="46321" style="stroke:black;stroke-width:5" />
<line x1="2482" y1="2403" x2="46321" y2="46321" style="stroke:black;stroke-width:5" />
<line x1="2403" y1="2403" x2="46321" y2="45095" style="stroke:black;stroke-width:5" />
<line x1="2403" y1="2296" x2="45095" y2="45095" style="stroke:black;stroke-width:5" />
<line x1="2296" y1="2296" x2="45095" y2="43921" style="stroke:black;stroke-width:5" />
<line x1="2296" y1="2695" x2="43921" y2="43921" style="stroke:black;stroke-width:5" />
<line x1="2695" y1="2695" x2="43921" y2="42719" style="stroke:black;stroke-width:5" />
<line x1="2695" y1="2828" x2="42719" y2="42719" style="stroke:black;stroke-width:5" />
<line x1="2828" y1="2828" x2="42719" y2="41562" style="stroke:black;stroke-width:5" />
<line x1="2828" y1="3222" x2="41562" y2="41562" style="stroke:black;stroke-width:5" />
<line x1="3222" y1="3222" x2="41562" y2="40224" style="stroke:black;stroke-width:5" />
<line x1="3222" y1="2699" x2="40224" y2="40224" style="stroke:black;stroke-width:5" />
<line x1="2699" y1="2699" x2="40224" y2="39079" style="stroke:black;stroke-width:5" />
<line x1="2699" y1="3177" x2="39079" y2="39079" style="stroke:black;stroke-width:5" />
<line x1="3177" y1="3177" x2="39079" y2="37999" style="stroke:black;stroke-width:5" />
<line x1="3177" y1="3864" x2="37999" y2="37999" style="stroke:black;stroke-width:5" />
<line x1="3864" y1="3864" x2="37999" y2="36807" style="stroke:black;stroke-width:5" />
<line x1="3864" y1="4089" x2="36807" y2="36807" style="stroke:black;stroke-width:5" />
<line x1="4089" y1="4089" x2="36807" y2="35632" style="stroke:black;stroke-width:5" />
<line x1="4089" y1="4386" x2="35632" y2="35632" style="stroke:black;stroke-width:5" />
<line x1="4386" y1="4386" x2="35632" y2="34312" style="stroke:black;stroke-width:5" />
<line x1="4386" y1="4272" x2="34312" y2="34312" style="stroke:black;stroke-width:5" />
<line x1="4272" y1="4272" x2="34312" y2="33177" style="stroke:black;stroke-width:5" />
<line x1="4272" y1="4733" x2="33177" y2="33177" style="stroke:black;stroke-width:5" />
<line x1="4733" y1="4733" x2="33177" y2="32241" style="stroke:black;stroke-width:5" />
<line x1="4733" y1="5686" x2="32241" y2="32241" style="stroke:black;stroke-width:5" />
<line x1="5686" y1="5686" x2="32241" y2="31119" style="stroke:black;stroke-width:5" />
<line x1="5686" y1="6137" x2="31119" y2="31119" style="stroke:black;stroke-width:5" />
<line x1="6137" y1="6137" x2="31119" y2="29806" style="stroke:black;stroke-width:5" />
<line x1="6137" y1="6179" x2="29806" y2="29806" style="stroke:black;stroke-width:5" />
<line x1="6179" y1="6179" x2="29806" y2="28704" style="stroke:black;stroke-width:5" />
<line x1="6179" y1="6707" x2="28704" y2="28704" style="stroke:black;stroke-width:5" />
<line x1="6707" y1="6707" x2="28704" y2="27769" style="stroke:black;stroke-width:5" />
<line x1="6707" y1="7556" x2="27769" y2="27769" style="stroke:black;stroke-width:5" />
<line x1="7556" y1="7556" x2="27769" y2="26633" style="stroke:black;stroke-width:5" />
<line x1="7556" y1="8011" x2="26633" y2="26633" style="stroke:black;stroke-width:5" />
<line x1="8011" y1="8011" x2="26633" y2="25738" style="stroke:black;stroke-width:5" />
<line x1="8011" y1="8891" x2="25738" y2="25738" style="stroke:black;stroke-width:5" />
<line x1="8891" y1="8891" x2="25738" y2="24700" style="stroke:black;stroke-width:5" />
<line x1="8891" y1="9512" x2="24700" y2="24700" style="stroke:black;stroke-width:5" />
<line x1="9512" y1="9512" x2="24700" y2="23669" style="stroke:black;stroke-width:5" />
<line x1="9512" y1="10145" x2="23669" y2="23669" style="stroke:black;stroke-width:5" />
<line x1="10145" y1="10145" x2="23669" y2="22498" style="stroke:black;stroke-width:5" />
<line x1="10145" y1="10581" x2="22498" y2="22498" style="stroke:black;stroke-width:5" />
<line x1="10581" y1="10581" x2="22498" y2="21360" style="stroke:black;stroke-width:5" />
<line x1="10581" y1="11090" x2="21360" y2="21360" style="stroke:black;stroke-width:5" />
<line x1="11090" y1="11090" x2="21360" y2="20367" style="stroke:black;stroke-width:5" />
<line x1="11090" y1="11806" x2="20367" y2="20367" style="stroke:black;stroke-width:5" />
<line x1="11806" y1="11806" x2="20367" y2="19399" style="stroke:black;stroke-width:5" />
<line x1="11806" y1="12557" x2="19399" y2="19399" style="stroke:black;stroke-width:5" />
<line x1="12557" y1="12557" x2="19399" y2="18748" style="stroke:black;stroke-width:5" />
<line x1="12557" y1="13678" x2="18748" y2="18748" style="stroke:black;stroke-width:5" />
<line x1="13678" y1="13678" x2="18748" y2="17795" style="stroke:black;stroke-width:5" />
<line x1="13678" y1="14434" x2="17795" y2="17795" style="stroke:black;stroke-width:5" />
<line x1="14434" y1="14434" x2="17795" y2="17156" style="stroke:black;stroke-width:5" />
<line x1="14434" y1="15525" x2="17156" y2="17156" style="stroke:black;stroke-width:5" />
<line x1="15525" y1="15525" x2="17156" y2="16203" style="stroke:black;stroke-width:5" />
<line x1="15525" y1="16278" x2="16203" y2="16203" style="stroke:black;stroke-width:5" />
<line x1="16278" y1="16278" x2="16203" y2="14843" style="stroke:black;stroke-width:5" />
<line x1="16278" y1="16655" x2="14843" y2="14843" style="stroke:black;stroke-width:5" />
<line x1="16655" y1="16655" x2="14843" y2="14097" style="stroke:black;stroke-width:5" />
<line x1="16655" y1="17636" x2="14097" y2="14097" style="stroke:black;stroke-width:5" />
<line x1="17636" y1="17636" x2="14097" y2="13533" style="stroke:black;stroke-width:5" />
<line x1="17636" y1="18765" x2="13533" y2="13533" style="stroke:black;stroke-width:5" />
<line x1="18765" y1="18765" x2="13533" y2="12579" style="stroke:black;stroke-width:5" />
<line x1="18765" y1="19557" x2="12579" y2="12579" style="stroke:black;stroke-width:5" />
<line x1="19557" y1="19557" x2="12579" y2="11698" style="stroke:black;stroke-width:5" />
<line x1="19557" y1="20420" x2="11698" y2="11698" style="stroke:black;stroke-width:5" />
<line x1="20420" y1="20420" x2="11698" y2="11198" style="stroke:black;stroke-width:5" />
<line x1="20420" y1="21574" x2="11198" y2="11198" style="stroke:black;stroke-width:5" />
<line x1="21574" y1="21574" x2="11198" y2="10215" style="stroke:black;stroke-width:5" />
<line x1="21574" y1="22375" x2="10215" y2="10215" style="stroke:black;stroke-width:5" />
<line x1="22375" y1="22375" x2="10215" y2="9824" style="stroke:black;stroke-width:5" />
<line x1="22375" y1="23586" x2="9824" y2="9824" style="stroke:black;stroke-width:5" />
<line x1="23586" y1="23586" x2="9824" y2="9644" style="stroke:black;stroke-width:5" />
<line x1="23586" y1="24908" x2="9644" y2="9644" style="stroke:black;stroke-width:5" />
<line x1="24908" y1="24908" x2="9644" y2="8223" style="stroke:black;stroke-width:5" />
<line x1="24908" y1="25470" x2="8223" y2="8223" style="stroke:black;stroke-width:5" />
<line x1="25470" y1="25470" x2="8223" y2="8297" style="stroke:black;stroke-width:5" />
<line x1="25470" y1="26914" x2="8297" y2="8297" style="stroke:black;stroke-width:5" />
<line x1="26914" y1="26914" x2="8297" y2="7806" style="stroke:black;stroke-width:5" />
<line x1="26914" y1="28020" x2="7806" y2="7806" style="stroke:black;stroke-width:5" />
<line x1="28020" y1="28020" x2="7806" y2="6450" style="stroke:black;stroke-width:5" />
<line x1="28020" y1="28698" x2="6450" y2="6450" style="stroke:black;stroke-width:5" />
<line x1="28698" y1="28698" x2="6450" y2="6062" style="stroke:black;stroke-width:5" />
<line x1="28698" y1="29871" x2="6062" y2="6062" style="stroke:black;stroke-width:5" />
<line x1="29871" y1="29871" x2="6062" y2="6055" style="stroke:black;stroke-width:5" />
<line x1="29871" y1="31199" x2="6055" y2="6055" style="stroke:black;stroke-width:5" />
<line x1="31199" y1="31199" x2="6055" y2="4999" style="stroke:black;stroke-width:5" />
<line x1="31199" y1="32082" x2="4999" y2="4999" style="stroke:black;stroke-width:5" />
<line x1="32082" y1="32082" x2="4999" y2="4796" style="stroke:black;stroke-width:5" />
<line x1="32082" y1="33315" x2="4796" y2="4796" style="stroke:black;stroke-width:5" />
<line x1="33315" y1="33315" x2="4796" y2="4678" style="stroke:black;stroke-width:5" />
<line x1="33315" y1="34565" x2="4678" y2="4678" style="stroke:black;stroke-width:5" />
<line x1="34565" y1="34565" x2="4678" y2="3911" style="stroke:black;stroke-width:5" />
<line x1="34565" y1="35596" x2="3911" y2="3911" style="stroke:black;stroke-width:5" />
<line x1="35596" y1="35596" x2="3911" y2="3859" style="stroke:black;stroke-width:5" />
<line x1="35596" y1="36853" x2="3859" y2="3859" style="stroke:black;stroke-width:5" />
<line x1="36853" y1="36853" x2="3859" y2="3456" style="stroke:black;stroke-width:5" />
<line x1="36853" y1="38004" x2="3456" y2="3456" style="stroke:black;stroke-width:5" />
<line x1="38004" y1="38004" x2="3456" y2="3106" style="stroke:black;stroke-width:5" />
<line x1="38004" y1="39173" x2="3106" y2="3106" style="stroke:black;stroke-width:5" />
<line x1="39173" y1="39173" x2="3106" y2="2804" style="stroke:black;stroke-width:5" />
<line x1="39173" y1="40356" x2="2804" y2="2804" style="stroke:black;stroke-width:5" />
<line x1="40356" y1="40356" x2="2804" y2="2389" style="stroke:black;stroke-width:5" />
<line x1="40356" y1="41521" x2="2389" y2="2389" style="stroke:black;stroke-width:5" />
<line x1="41521" y1="41521" x2="2389" y2="2607" style="stroke:black;stroke-width:5" />
<line x1="41521" y1="42793" x2="2607" y2="2607" style="stroke:black;stroke-width:5" />
<line x1="42793" y1="42793" x2="2607" y2="2571" style="stroke:black;stroke-width:5" />
<line x1="42793" y1="44013" x2="2571" y2="2571" style="stroke:black;stroke-width:5" />
<line x1="44013" y1="44013" x2="2571" y2="2428" style="stroke:black;stroke-width:5" />
<line x1="44013" y1="45216" x2="2428" y2="2428" style="stroke:black;stroke-width:5" />
<line x1="45216" y1="45216" x2="2428" y2="2447" style="stroke:black;stroke-width:5" />
<line x1="45216" y1="46432" x2="2447" y2="2447" style="stroke:black;stroke-width:5" />
<line x1="46432" y1="46432" x2="2447" y2="1680" style="stroke:black;stroke-width:5" />
<line x1="46432" y1="47603" x2="1680" y2="1680" style="stroke:black;stroke-width:5" />
<line x1="47603" y1="47603" x2="1680" y2="2021" style="stroke:black;stroke-width:5" />
<line x1="47603" y1="48837" x2="2021" y2="2021" style="stroke:black;stroke-width:5" />
<line x1="48837" y1="48837" x2="2021" y2="1869" style="stroke:black;stroke-width:5" />
<line x1="48837" y1="50053" x2="1869" y2="1869" style="stroke:black;stroke-width:5" />
<line x1="50053" y1="50053" x2="1869" y2="1772" style="stroke:black;stroke-width:5" />
<line x1="50053" y1="51276" x2="1772" y2="1772" style="stroke:black;stroke-width:5" />
<line x1="51276" y1="51276" x2="1772" y2="1690" style="stroke:black;stroke-width:5" />
<line x1="51276" y1="52504" x2="1690" y2="1690" style="stroke:black;stroke-width:5" />
<line x1="52504" y1="52504" x2="1690" y2="1887" style="stroke:black;stroke-width:5" />
<line x1="52504" y1="53717" x2="1887" y2="1887" style="stroke:black;stroke-width:5" />
<line x1="53717" y1="53717" x2="1887" y2="2639" style="stroke:black;stroke-width:5" />
<line x1="53717" y1="54869" x2="2639" y2="2639" style="stroke:black;stroke-width:5" />
<line x1="54869" y1="54869" x2="2639" y2="2254" style="stroke:black;stroke-width:5" />
<line x1="54869" y1="56135" x2="2254" y2="2254" style="stroke:black;stroke-width:5" />
<line x1="56135" y1="56135" x2="2254" y2="2213" style="stroke:black;stroke-width:5" />
<line x1="56135" y1="57375" x2="2213" y2="2213" style="stroke:black;stroke-width:5" />
<line x1="57375" y1="57375" x2="2213" y2="2636" style="stroke:black;stroke-width:5" />
<line x1="57375" y1="58543" x2="2636" y2="2636" style="stroke:black;stroke-width:5" />
<line x1="58543" y1="58543" x2="2636" y2="2935" style="stroke:black;stroke-width:5" />
<line x1="58543" y1="59726" x2="2935" y2="2935" style="stroke:black;stroke-width:5" />
<line x1="59726" y1="59726" x2="2935" y2="2834" style="stroke:black;stroke-width:5" />
<line x1="59726" y1="61000" x2="2834" y2="2834" style="stroke:black;stroke-width:5" />
<line x1="61000" y1="61000" x2="2834" y2="3779" style="stroke:black;stroke-width:5" />
<line x1="61000" y1="62022" x2="3779" y2="3779" style="stroke:black;stroke-width:5" />
<line x1="62022" y1="62022" x2="3779" y2="3627" style="stroke:black;stroke-width:5" />
<line x1="62022" y1="63324" x2="3627" y2="3627" style="stroke:black;stroke-width:5" />
<line x1="63324" y1="63324" x2="3627" y2="4588" style="stroke:black;stroke-width:5" />
<line x1="63324" y1="64303" x2="4588" y2="4588" style="stroke:black;stroke-width:5" />
<line x1="64303" y1="64303" x2="4588" y2="4285" style="stroke:black;stroke-width:5" />
<line x1="64303" y1="65682" x2="4285" y2="4285" style="stroke:black;stroke-width:5" />
<line x1="65682" y1="65682" x2="4285" y2="5393" style="stroke:black;stroke-width:5" />
<line x1="65682" y1="66577" x2="5393" y2="5393" style="stroke:black;stroke-width:5" />
<line x1="66577" y1="66577" x2="5393" y2="5783" style="stroke:black;stroke-width:5" />
<line x1="66577" y1="67719" x2="5783" y2="5783" style="stroke:black;stroke-width:5" />
<line x1="67719" y1="67719" x2="5783" y2="5911" style="stroke:black;stroke-width:5" />
<line x1="67719" y1="68978" x2="5911" y2="5911" style="stroke:black;stroke-width:5" />
<line x1="68978" y1="68978" x2="5911" y2="6592" style="stroke:black;stroke-width:5" />
<line x1="68978" y1="70003" x2="6592" y2="6592" style="stroke:black;stroke-width:5" />
<line x1="70003" y1="70003" x2="6592" y2="6589" style="stroke:black;stroke-width:5" />
<line x1="70003" y1="71354" x2="6589" y2="6589" style="stroke:black;stroke-width:5" />
<line x1="71354" y1="71354" x2="6589" y2="7560" style="stroke:black;stroke-width:5" />
<line x1="71354" y1="72228" x2="7560" y2="7560" style="stroke:black;stroke-width:5" />
<line x1="72228" y1="72228" x2="7560" y2="7995" style="stroke:black;stroke-width:5" />
<line x1="72228" y1="73375" x2="7995" y2="7995" style="stroke:black;stroke-width:5" />
<line x1="73375" y1="73375" x2="7995" y2="8613" style="stroke:black;stroke-width:5" />
<line x1="73375" y1="74425" x2="8613" y2="8613" style="stroke:black;stroke-width:5" />
<line x1="74425" y1="74425" x2="8613" y2="9716" style="stroke:black;stroke-width:5" />
<line x1="74425" y1="75171" x2="9716" y2="9716" style="stroke:black;stroke-width:5" />
<line x1="75171" y1="75171" x2="9716" y2="9581" style="stroke:black;stroke-width:5" />
<line x1="75171" y1="76702" x2="9581" y2="9581" style="stroke:black;stroke-width:5" />
<line x1="76702" y1="76702" x2="9581" y2="10462" style="stroke:black;stroke-width:5" />
<line x1="76702" y1="77584" x2="10462" y2="10462" style="stroke:black;stroke-width:5" />
<line x1="77584" y1="77584" x2="10462" y2="11001" style="stroke:black;stroke-width:5" />
<line x1="77584" y1="78704" x2="11001" y2="11001" style="stroke:black;stroke-width:5" />
<line x1="78704" y1="78704" x2="11001" y2="12151" style="stroke:black;stroke-width:5" />
<line x1="78704" y1="79364" x2="12151" y2="12151" style="stroke:black;stroke-width:5" />
<line x1="79364" y1="79364" x2="12151" y2="13033" style="stroke:black;stroke-width:5" />
<line x1="79364" y1="80210" x2="13033" y2="13033" style="stroke:black;stroke-width:5" />
<line x1="80210" y1="80210" x2="13033" y2="13724" style="stroke:black;stroke-width:5" />
<line x1="80210" y1="81211" x2="13724" y2="13724" style="stroke:black;stroke-width:5" />
<line x1="81211" y1="81211" x2="13724" y2="14446" style="stroke:black;stroke-width:5" />
<line x1="81211" y1="82193" x2="14446" y2="14446" style="stroke:black;stroke-width:5" />
<line x1="82193" y1="82193" x2="14446" y2="14993" style="stroke:black;stroke-width:5" />
<line x1="82193" y1="83350" x2="14993" y2="14993" style="stroke:black;stroke-width:5" />
<line x1="83350" y1="83350" x2="14993" y2="16232" style="stroke:black;stroke-width:5" />
<line x1="83350" y1="83843" x2="16232" y2="16232" style="stroke:black;stroke-width:5" />
<line x1="83843" y1="83843" x2="16232" y2="17156" style="stroke:black;stroke-width:5" />
<line x1="83843" y1="84628" x2="17156" y2="17156" style="stroke:black;stroke-width:5" />
<line x1="84628" y1="84628" x2="17156" y2="17876" style="stroke:black;stroke-width:5" />
<line x1="84628" y1="85635" x2="17876" y2="17876" style="stroke:black;stroke-width:5" />
<line x1="85635" y1="85635" x2="17876" y2="18745" style="stroke:black;stroke-width:5" />
<line x1="85635" y1="86489" x2="18745" y2="18745" style="stroke:black;stroke-width:5" />
<line x1="86489" y1="86489" x2="18745" y2="19461" style="stroke:black;stroke-width:5" />
<line x1="86489" y1="87537" x2="19461" y2="19461" style="stroke:black;stroke-width:5" />
<line x1="87537" y1="87537" x2="19461" y2="20583" style="stroke:black;stroke-width:5" />
<line x1="87537" y1="88090" x2="20583" y2="20583" style="stroke:black;stroke-width:5" />
<line x1="88090" y1="88090" x2="20583" y2="21887" style="stroke:black;stroke-width:5" />
<line x1="88090" y1="88373" x2="21887" y2="21887" style="stroke:black;stroke-width:5" />
<line x1="88373" y1="88373" x2="21887" y2="22683" style="stroke:black;stroke-width:5" />
<line x1="88373" y1="89339" x2="22683" y2="22683" style="stroke:black;stroke-width:5" />
<line x1="89339" y1="89339" x2="22683" y2="23695" style="stroke:black;stroke-width:5" />
<line x1="89339" y1="90010" x2="23695" y2="23695" style="stroke:black;stroke-width:5" />
<line x1="90010" y1="90010" x2="23695" y2="24470" style="stroke:black;stroke-width:5" />
<line x1="90010" y1="91059" x2="24470" y2="24470" style="stroke:black;stroke-width:5" />
<line x1="91059" y1="91059" x2="24470" y2="25842" style="stroke:black;stroke-width:5" />
<line x1="91059" y1="91143" x2="25842" y2="25842" style="stroke:black;stroke-width:5" />
<line x1="91143" y1="91143" x2="25842" y2="26911" style="stroke:black;stroke-width:5" />
<line x1="91143" y1="91707" x2="26911" y2="26911" style="stroke:black;stroke-width:5" />
<line x1="91707" y1="91707" x2="26911" y2="27994" style="stroke:black;stroke-width:5" />
<line x1="91707" y1="92241" x2="27994" y2="27994" style="stroke:black;stroke-width:5" />
<line x1="92241" y1="92241" x2="27994" y2="28841" style="stroke:black;stroke-width:5" />
<line x1="92241" y1="93256" x2="28841" y2="28841" style="stroke:black;stroke-width:5" />
<line x1="93256" y1="93256" x2="28841" y2="29905" style="stroke:black;stroke-width:5" />
<line x1="93256" y1="93862" x2="29905" y2="29905" style="stroke:black;stroke-width:5" />
<line x1="93862" y1="93862" x2="29905" y2="31201" style="stroke:black;stroke-width:5" />
<line x1="93862" y1="93941" x2="31201" y2="31201" style="stroke:black;stroke-width:5" />
<line x1="93941" y1="93941" x2="31201" y2="32160" style="stroke:black;stroke-width:5" />
<line x1="93941" y1="94806" x2="32160" y2="32160" style="stroke:black;stroke-width:5" />
<line x1="94806" y1="94806" x2="32160" y2="33405" style="stroke:black;stroke-width:5" />
<line x1="94806" y1="94959" x2="33405" y2="33405" style="stroke:black;stroke-width:5" />
<line x1="94959" y1="94959" x2="33405" y2="34485" style="stroke:black;stroke-width:5" />
<line x1="94959" y1="95554" x2="34485" y2="34485" style="stroke:black;stroke-width:5" />
<line x1="95554" y1="95554" x2="34485" y2="35605" style="stroke:black;stroke-width:5" />
<line x1="95554" y1="96058" x2="35605" y2="35605" style="stroke:black;stroke-width:5" />
<line x1="96058" y1="96058" x2="35605" y2="36871" style="stroke:black;stroke-width:5" />
<line x1="96058" y1="96077" x2="36871" y2="36871" style="stroke:black;stroke-width:5" />
<line x1="96077" y1="96077" x2="36871" y2="37993" style="stroke:black;stroke-width:5" />
<line x1="96077" y1="96585" x2="37993" y2="37993" style="stroke:black;stroke-width:5" />
<line x1="96585" y1="96585" x2="37993" y2="39275" style="stroke:black;stroke-width:5" />
<line x1="96585" y1="96451" x2="39275" y2="39275" style="stroke:black;stroke-width:5" />
<line x1="96451" y1="96451" x2="39275" y2="40374" style="stroke:black;stroke-width:5" />
<line x1="96451" y1="97105" x2="40374" y2="40374" style="stroke:black;stroke-width:5" />
<line x1="97105" y1="97105" x2="40374" y2="41575" style="stroke:black;stroke-width:5" />
<line x1="97105" y1="97306" x2="41575" y2="41575" style="stroke:black;stroke-width:5" />
<line x1="97306" y1="97306" x2="41575" y2="42763" style="stroke:black;stroke-width:5" />
<line x1="97306" y1="97591" x2="42763" y2="42763" style="stroke:black;stroke-width:5" />
<line x1="97591" y1="97591" x2="42763" y2="43998" style="stroke:black;stroke-width:5" />
<line x1="97591" y1="97544" x2="43998" y2="43998" style="stroke:black;stroke-width:5" />
<line x1="97544" y1="97544" x2="43998" y2="45175" style="stroke:black;stroke-width:5" />
<line x1="97544" y1="97975" x2="45175" y2="45175" style="stroke:black;stroke-width:5" />
<line x1="97975" y1="97975" x2="45175" y2="46393" style="stroke:black;stroke-width:5" />
<line x1="97975" y1="98073" x2="46393" y2="46393" style="stroke:black;stroke-width:5" />
<line x1="98073" y1="98073" x2="46393" y2="47615" style="stroke:black;stroke-width:5" />
<line x1="98073" y1="98070" x2="47615" y2="47615" style="stroke:black;stroke-width:5" />
<line x1="98070" y1="98070" x2="47615" y2="48828" style="stroke:black;stroke-width:5" />
<line x1="98070" y1="98354" x2="48828" y2="48828" style="stroke:black;stroke-width:5" />
<line x1="98354" y1="98354" x2="48828" y2="50053" style="stroke:black;stroke-width:5" />
</svg>
